<?xml version="1.0" encoding="utf-8"?>
<!-- Generator: Adobe Illustrator 25.3.1, SVG Export Plug-In . SVG Version: 6.00 Build 0)  -->
<svg version="1.1" id="Layer_1" xmlns="http://www.w3.org/2000/svg" xmlns:xlink="http://www.w3.org/1999/xlink" x="0px" y="0px"
	 viewBox="0 0 1920 1080" style="enable-background:new 0 0 1920 1080;" xml:space="preserve">
<style type="text/css">
	.st0{opacity:0;}
	.st1{fill:#181818;}
	.st2{opacity:0.47;}
	.st3{fill:#08FDD8;}
	.st4{fill:none;stroke:#08FDD8;stroke-miterlimit:10;}
	.st5{opacity:0.47;fill:none;stroke:#FF1C7D;stroke-miterlimit:10;}
	.st6{fill:#FD2155;}
	.st7{opacity:0.47;fill:#FD2155;}
	.st8{opacity:0.47;fill:#FF1C7D;}
	.st9{opacity:0.47;fill:none;stroke:#08FDD8;stroke-miterlimit:10;}
	.st10{opacity:0.47;fill:none;}
</style>
<g class="st0">
	<path class="st1" d="M0.11-12.4v291.06c25.29,20.55,54.8,37.66,86.63,50.21c82.83,32.65,179.26,36.59,268.88,20.7
		c89.62-15.89,173.1-50.59,249.95-92.17c107-57.89,206.01-130.81,328.22-161.32c59.79-14.93,123.53-19.16,180.68-40.08
		c37.96-13.89,73.53-38.35,91.8-68.4H0.11z"/>
</g>
<g class="st2">
	<g>
		<path class="st3" d="M1340.41-12.4h-2.56c11.8,120.35,73.68,232.18,177.29,318.52c109,90.84,251.86,143.21,404.86,148.96v-2.12
			C1613.67,441.26,1365.6,240.39,1340.41-12.4z"/>
	</g>
</g>
<g class="st2">
	<path class="st4" d="M538.1,1063c38.36-144.38,193.16-252.7,377.78-252.7c184.62,0,339.43,108.32,377.78,252.7h2.58
		c-38.4-145.55-194.35-254.8-380.36-254.8c-186.02,0-341.96,109.25-380.36,254.8H538.1z"/>
</g>
<ellipse class="st5" cx="1568.27" cy="537.63" rx="77.14" ry="64.29"/>
<g class="st2">
	<g>
		<ellipse class="st6" cx="209.44" cy="99.95" rx="3.06" ry="2.55"/>
		<path class="st6" d="M244.91,99.95c0,1.41-1.37,2.55-3.06,2.55c-1.69,0-3.06-1.14-3.06-2.55c0-1.41,1.37-2.55,3.06-2.55
			C243.54,97.4,244.91,98.54,244.91,99.95z"/>
		<path class="st6" d="M277.32,99.95c0,1.41-1.37,2.55-3.06,2.55c-1.69,0-3.06-1.14-3.06-2.55c0-1.41,1.37-2.55,3.06-2.55
			C275.95,97.4,277.32,98.54,277.32,99.95z"/>
		<ellipse class="st6" cx="306.67" cy="99.95" rx="3.06" ry="2.55"/>
		<ellipse class="st6" cx="339.08" cy="99.95" rx="3.06" ry="2.55"/>
		<path class="st6" d="M374.55,99.95c0,1.41-1.37,2.55-3.06,2.55c-1.69,0-3.06-1.14-3.06-2.55c0-1.41,1.37-2.55,3.06-2.55
			C373.17,97.4,374.55,98.54,374.55,99.95z"/>
		<ellipse class="st6" cx="403.89" cy="99.95" rx="3.06" ry="2.55"/>
		<path class="st6" d="M212.5,129.84c0,1.41-1.37,2.55-3.06,2.55c-1.69,0-3.06-1.14-3.06-2.55c0-1.41,1.37-2.55,3.06-2.55
			C211.13,127.29,212.5,128.43,212.5,129.84z"/>
		<path class="st6" d="M244.91,129.84c0,1.41-1.37,2.55-3.06,2.55c-1.69,0-3.06-1.14-3.06-2.55c0-1.41,1.37-2.55,3.06-2.55
			C243.54,127.29,244.91,128.43,244.91,129.84z"/>
		<path class="st6" d="M277.32,129.84c0,1.41-1.37,2.55-3.06,2.55c-1.69,0-3.06-1.14-3.06-2.55c0-1.41,1.37-2.55,3.06-2.55
			C275.95,127.29,277.32,128.43,277.32,129.84z"/>
		<path class="st6" d="M309.73,129.84c0,1.41-1.37,2.55-3.06,2.55c-1.69,0-3.06-1.14-3.06-2.55c0-1.41,1.37-2.55,3.06-2.55
			C308.36,127.29,309.73,128.43,309.73,129.84z"/>
		<path class="st6" d="M342.14,129.84c0,1.41-1.37,2.55-3.06,2.55s-3.06-1.14-3.06-2.55c0-1.41,1.37-2.55,3.06-2.55
			S342.14,128.43,342.14,129.84z"/>
		<path class="st6" d="M374.55,129.84c0,1.41-1.37,2.55-3.06,2.55c-1.69,0-3.06-1.14-3.06-2.55c0-1.41,1.37-2.55,3.06-2.55
			C373.17,127.29,374.55,128.43,374.55,129.84z"/>
		<path class="st6" d="M406.95,129.84c0,1.41-1.37,2.55-3.06,2.55c-1.69,0-3.06-1.14-3.06-2.55c0-1.41,1.37-2.55,3.06-2.55
			C405.58,127.29,406.95,128.43,406.95,129.84z"/>
		<ellipse class="st6" cx="209.44" cy="159.72" rx="3.06" ry="2.55"/>
		<path class="st6" d="M244.91,159.72c0,1.41-1.37,2.55-3.06,2.55c-1.69,0-3.06-1.14-3.06-2.55c0-1.41,1.37-2.55,3.06-2.55
			C243.54,157.17,244.91,158.32,244.91,159.72z"/>
		<path class="st6" d="M277.32,159.72c0,1.41-1.37,2.55-3.06,2.55c-1.69,0-3.06-1.14-3.06-2.55c0-1.41,1.37-2.55,3.06-2.55
			C275.95,157.17,277.32,158.32,277.32,159.72z"/>
		<ellipse class="st6" cx="306.67" cy="159.72" rx="3.06" ry="2.55"/>
		<ellipse class="st6" cx="339.08" cy="159.72" rx="3.06" ry="2.55"/>
		<path class="st6" d="M374.55,159.72c0,1.41-1.37,2.55-3.06,2.55c-1.69,0-3.06-1.14-3.06-2.55c0-1.41,1.37-2.55,3.06-2.55
			C373.17,157.17,374.55,158.32,374.55,159.72z"/>
		<ellipse class="st6" cx="403.89" cy="159.72" rx="3.06" ry="2.55"/>
		<path class="st6" d="M212.5,189.61c0,1.41-1.37,2.55-3.06,2.55c-1.69,0-3.06-1.14-3.06-2.55c0-1.41,1.37-2.55,3.06-2.55
			C211.13,187.06,212.5,188.2,212.5,189.61z"/>
		<path class="st6" d="M244.91,189.61c0,1.41-1.37,2.55-3.06,2.55c-1.69,0-3.06-1.14-3.06-2.55c0-1.41,1.37-2.55,3.06-2.55
			C243.54,187.06,244.91,188.2,244.91,189.61z"/>
		<path class="st6" d="M277.32,189.61c0,1.41-1.37,2.55-3.06,2.55c-1.69,0-3.06-1.14-3.06-2.55c0-1.41,1.37-2.55,3.06-2.55
			C275.95,187.06,277.32,188.2,277.32,189.61z"/>
		<path class="st6" d="M309.73,189.61c0,1.41-1.37,2.55-3.06,2.55c-1.69,0-3.06-1.14-3.06-2.55c0-1.41,1.37-2.55,3.06-2.55
			C308.36,187.06,309.73,188.2,309.73,189.61z"/>
		<path class="st6" d="M342.14,189.61c0,1.41-1.37,2.55-3.06,2.55s-3.06-1.14-3.06-2.55c0-1.41,1.37-2.55,3.06-2.55
			S342.14,188.2,342.14,189.61z"/>
		<path class="st6" d="M374.55,189.61c0,1.41-1.37,2.55-3.06,2.55c-1.69,0-3.06-1.14-3.06-2.55c0-1.41,1.37-2.55,3.06-2.55
			C373.17,187.06,374.55,188.2,374.55,189.61z"/>
		<path class="st6" d="M406.95,189.61c0,1.41-1.37,2.55-3.06,2.55c-1.69,0-3.06-1.14-3.06-2.55c0-1.41,1.37-2.55,3.06-2.55
			C405.58,187.06,406.95,188.2,406.95,189.61z"/>
		<ellipse class="st6" cx="209.44" cy="219.49" rx="3.06" ry="2.55"/>
		<path class="st6" d="M244.91,219.49c0,1.41-1.37,2.55-3.06,2.55c-1.69,0-3.06-1.14-3.06-2.55c0-1.41,1.37-2.55,3.06-2.55
			C243.54,216.94,244.91,218.09,244.91,219.49z"/>
		<path class="st6" d="M277.32,219.49c0,1.41-1.37,2.55-3.06,2.55c-1.69,0-3.06-1.14-3.06-2.55c0-1.41,1.37-2.55,3.06-2.55
			C275.95,216.94,277.32,218.09,277.32,219.49z"/>
		<ellipse class="st6" cx="306.67" cy="219.49" rx="3.06" ry="2.55"/>
		<ellipse class="st6" cx="339.08" cy="219.49" rx="3.06" ry="2.55"/>
		<path class="st6" d="M374.55,219.49c0,1.41-1.37,2.55-3.06,2.55c-1.69,0-3.06-1.14-3.06-2.55c0-1.41,1.37-2.55,3.06-2.55
			C373.17,216.94,374.55,218.09,374.55,219.49z"/>
		<ellipse class="st6" cx="403.89" cy="219.49" rx="3.06" ry="2.55"/>
		<ellipse class="st6" cx="209.44" cy="249.38" rx="3.06" ry="2.55"/>
		<path class="st6" d="M244.91,249.38c0,1.41-1.37,2.55-3.06,2.55c-1.69,0-3.06-1.14-3.06-2.55c0-1.41,1.37-2.55,3.06-2.55
			C243.54,246.83,244.91,247.97,244.91,249.38z"/>
		<path class="st6" d="M277.32,249.38c0,1.41-1.37,2.55-3.06,2.55c-1.69,0-3.06-1.14-3.06-2.55c0-1.41,1.37-2.55,3.06-2.55
			C275.95,246.83,277.32,247.97,277.32,249.38z"/>
		<ellipse class="st6" cx="306.67" cy="249.38" rx="3.06" ry="2.55"/>
		<ellipse class="st6" cx="339.08" cy="249.38" rx="3.06" ry="2.55"/>
		<path class="st6" d="M374.55,249.38c0,1.41-1.37,2.55-3.06,2.55c-1.69,0-3.06-1.14-3.06-2.55c0-1.41,1.37-2.55,3.06-2.55
			C373.17,246.83,374.55,247.97,374.55,249.38z"/>
		<ellipse class="st6" cx="403.89" cy="249.38" rx="3.06" ry="2.55"/>
		<path class="st6" d="M212.5,279.27c0,1.41-1.37,2.55-3.06,2.55c-1.69,0-3.06-1.14-3.06-2.55c0-1.41,1.37-2.55,3.06-2.55
			C211.13,276.72,212.5,277.86,212.5,279.27z"/>
		<path class="st6" d="M244.91,279.27c0,1.41-1.37,2.55-3.06,2.55c-1.69,0-3.06-1.14-3.06-2.55c0-1.41,1.37-2.55,3.06-2.55
			C243.54,276.72,244.91,277.86,244.91,279.27z"/>
		<path class="st6" d="M277.32,279.27c0,1.41-1.37,2.55-3.06,2.55c-1.69,0-3.06-1.14-3.06-2.55c0-1.41,1.37-2.55,3.06-2.55
			C275.95,276.72,277.32,277.86,277.32,279.27z"/>
		<path class="st6" d="M309.73,279.27c0,1.41-1.37,2.55-3.06,2.55c-1.69,0-3.06-1.14-3.06-2.55c0-1.41,1.37-2.55,3.06-2.55
			C308.36,276.72,309.73,277.86,309.73,279.27z"/>
		<path class="st6" d="M342.14,279.27c0,1.41-1.37,2.55-3.06,2.55s-3.06-1.14-3.06-2.55c0-1.41,1.37-2.55,3.06-2.55
			S342.14,277.86,342.14,279.27z"/>
		<path class="st6" d="M374.55,279.27c0,1.41-1.37,2.55-3.06,2.55c-1.69,0-3.06-1.14-3.06-2.55c0-1.41,1.37-2.55,3.06-2.55
			C373.17,276.72,374.55,277.86,374.55,279.27z"/>
		<path class="st6" d="M406.95,279.27c0,1.41-1.37,2.55-3.06,2.55c-1.69,0-3.06-1.14-3.06-2.55c0-1.41,1.37-2.55,3.06-2.55
			C405.58,276.72,406.95,277.86,406.95,279.27z"/>
		<ellipse class="st6" cx="209.44" cy="309.15" rx="3.06" ry="2.55"/>
		<path class="st6" d="M244.91,309.15c0,1.41-1.37,2.55-3.06,2.55c-1.69,0-3.06-1.14-3.06-2.55c0-1.41,1.37-2.55,3.06-2.55
			C243.54,306.6,244.91,307.74,244.91,309.15z"/>
		<path class="st6" d="M277.32,309.15c0,1.41-1.37,2.55-3.06,2.55c-1.69,0-3.06-1.14-3.06-2.55c0-1.41,1.37-2.55,3.06-2.55
			C275.95,306.6,277.32,307.74,277.32,309.15z"/>
		<ellipse class="st6" cx="306.67" cy="309.15" rx="3.06" ry="2.55"/>
		<ellipse class="st6" cx="339.08" cy="309.15" rx="3.06" ry="2.55"/>
		<path class="st6" d="M374.55,309.15c0,1.41-1.37,2.55-3.06,2.55c-1.69,0-3.06-1.14-3.06-2.55c0-1.41,1.37-2.55,3.06-2.55
			C373.17,306.6,374.55,307.74,374.55,309.15z"/>
		<ellipse class="st6" cx="403.89" cy="309.15" rx="3.06" ry="2.55"/>
	</g>
</g>
<g>
	<ellipse class="st6" cx="1455.17" cy="736.34" rx="3.06" ry="2.55"/>
	<ellipse class="st6" cx="1487.58" cy="736.34" rx="3.06" ry="2.55"/>
	<path class="st6" d="M1523.05,736.34c0,1.41-1.37,2.55-3.06,2.55c-1.69,0-3.06-1.14-3.06-2.55s1.37-2.55,3.06-2.55
		C1521.68,733.78,1523.05,734.93,1523.05,736.34z"/>
	<path class="st6" d="M1555.46,736.34c0,1.41-1.37,2.55-3.06,2.55c-1.69,0-3.06-1.14-3.06-2.55s1.37-2.55,3.06-2.55
		C1554.09,733.78,1555.46,734.93,1555.46,736.34z"/>
	<path class="st6" d="M1587.86,736.34c0,1.41-1.37,2.55-3.06,2.55c-1.69,0-3.06-1.14-3.06-2.55s1.37-2.55,3.06-2.55
		C1586.49,733.78,1587.86,734.93,1587.86,736.34z"/>
	<ellipse class="st6" cx="1617.21" cy="736.34" rx="3.06" ry="2.55"/>
	<path class="st6" d="M1652.68,736.34c0,1.41-1.37,2.55-3.06,2.55c-1.69,0-3.06-1.14-3.06-2.55s1.37-2.55,3.06-2.55
		C1651.31,733.78,1652.68,734.93,1652.68,736.34z"/>
	<ellipse class="st6" cx="1455.17" cy="766.22" rx="3.06" ry="2.55"/>
	<ellipse class="st6" cx="1487.58" cy="766.22" rx="3.06" ry="2.55"/>
	<path class="st6" d="M1523.05,766.22c0,1.41-1.37,2.55-3.06,2.55c-1.69,0-3.06-1.14-3.06-2.55c0-1.41,1.37-2.55,3.06-2.55
		C1521.68,763.67,1523.05,764.81,1523.05,766.22z"/>
	<path class="st6" d="M1555.46,766.22c0,1.41-1.37,2.55-3.06,2.55c-1.69,0-3.06-1.14-3.06-2.55c0-1.41,1.37-2.55,3.06-2.55
		C1554.09,763.67,1555.46,764.81,1555.46,766.22z"/>
	<path class="st6" d="M1587.86,766.22c0,1.41-1.37,2.55-3.06,2.55c-1.69,0-3.06-1.14-3.06-2.55c0-1.41,1.37-2.55,3.06-2.55
		C1586.49,763.67,1587.86,764.81,1587.86,766.22z"/>
	<ellipse class="st6" cx="1617.21" cy="766.22" rx="3.06" ry="2.55"/>
	<path class="st6" d="M1652.68,766.22c0,1.41-1.37,2.55-3.06,2.55c-1.69,0-3.06-1.14-3.06-2.55c0-1.41,1.37-2.55,3.06-2.55
		C1651.31,763.67,1652.68,764.81,1652.68,766.22z"/>
	<path class="st6" d="M1458.23,796.11c0,1.41-1.37,2.55-3.06,2.55c-1.69,0-3.06-1.14-3.06-2.55c0-1.41,1.37-2.55,3.06-2.55
		C1456.86,793.56,1458.23,794.7,1458.23,796.11z"/>
	<path class="st6" d="M1490.64,796.11c0,1.41-1.37,2.55-3.06,2.55c-1.69,0-3.06-1.14-3.06-2.55c0-1.41,1.37-2.55,3.06-2.55
		C1489.27,793.56,1490.64,794.7,1490.64,796.11z"/>
	<path class="st6" d="M1523.05,796.11c0,1.41-1.37,2.55-3.06,2.55c-1.69,0-3.06-1.14-3.06-2.55c0-1.41,1.37-2.55,3.06-2.55
		C1521.68,793.56,1523.05,794.7,1523.05,796.11z"/>
	<path class="st6" d="M1555.46,796.11c0,1.41-1.37,2.55-3.06,2.55c-1.69,0-3.06-1.14-3.06-2.55c0-1.41,1.37-2.55,3.06-2.55
		C1554.09,793.56,1555.46,794.7,1555.46,796.11z"/>
	<path class="st6" d="M1587.86,796.11c0,1.41-1.37,2.55-3.06,2.55c-1.69,0-3.06-1.14-3.06-2.55c0-1.41,1.37-2.55,3.06-2.55
		C1586.49,793.56,1587.86,794.7,1587.86,796.11z"/>
	<path class="st6" d="M1620.27,796.11c0,1.41-1.37,2.55-3.06,2.55s-3.06-1.14-3.06-2.55c0-1.41,1.37-2.55,3.06-2.55
		S1620.27,794.7,1620.27,796.11z"/>
	<path class="st6" d="M1652.68,796.11c0,1.41-1.37,2.55-3.06,2.55c-1.69,0-3.06-1.14-3.06-2.55c0-1.41,1.37-2.55,3.06-2.55
		C1651.31,793.56,1652.68,794.7,1652.68,796.11z"/>
	<ellipse class="st6" cx="1455.17" cy="825.99" rx="3.06" ry="2.55"/>
	<ellipse class="st6" cx="1487.58" cy="825.99" rx="3.06" ry="2.55"/>
	<path class="st6" d="M1523.05,825.99c0,1.41-1.37,2.55-3.06,2.55c-1.69,0-3.06-1.14-3.06-2.55s1.37-2.55,3.06-2.55
		C1521.68,823.44,1523.05,824.58,1523.05,825.99z"/>
	<path class="st6" d="M1555.46,825.99c0,1.41-1.37,2.55-3.06,2.55c-1.69,0-3.06-1.14-3.06-2.55s1.37-2.55,3.06-2.55
		C1554.09,823.44,1555.46,824.58,1555.46,825.99z"/>
	<path class="st6" d="M1587.86,825.99c0,1.41-1.37,2.55-3.06,2.55c-1.69,0-3.06-1.14-3.06-2.55s1.37-2.55,3.06-2.55
		C1586.49,823.44,1587.86,824.58,1587.86,825.99z"/>
	<ellipse class="st6" cx="1617.21" cy="825.99" rx="3.06" ry="2.55"/>
	<path class="st6" d="M1652.68,825.99c0,1.41-1.37,2.55-3.06,2.55c-1.69,0-3.06-1.14-3.06-2.55s1.37-2.55,3.06-2.55
		C1651.31,823.44,1652.68,824.58,1652.68,825.99z"/>
	<path class="st6" d="M1458.23,855.88c0,1.41-1.37,2.55-3.06,2.55c-1.69,0-3.06-1.14-3.06-2.55c0-1.41,1.37-2.55,3.06-2.55
		C1456.86,853.33,1458.23,854.47,1458.23,855.88z"/>
	<path class="st6" d="M1490.64,855.88c0,1.41-1.37,2.55-3.06,2.55c-1.69,0-3.06-1.14-3.06-2.55c0-1.41,1.37-2.55,3.06-2.55
		C1489.27,853.33,1490.64,854.47,1490.64,855.88z"/>
	<path class="st6" d="M1523.05,855.88c0,1.41-1.37,2.55-3.06,2.55c-1.69,0-3.06-1.14-3.06-2.55c0-1.41,1.37-2.55,3.06-2.55
		C1521.68,853.33,1523.05,854.47,1523.05,855.88z"/>
	<path class="st6" d="M1555.46,855.88c0,1.41-1.37,2.55-3.06,2.55c-1.69,0-3.06-1.14-3.06-2.55c0-1.41,1.37-2.55,3.06-2.55
		C1554.09,853.33,1555.46,854.47,1555.46,855.88z"/>
	<path class="st6" d="M1587.86,855.88c0,1.41-1.37,2.55-3.06,2.55c-1.69,0-3.06-1.14-3.06-2.55c0-1.41,1.37-2.55,3.06-2.55
		C1586.49,853.33,1587.86,854.47,1587.86,855.88z"/>
	<path class="st6" d="M1620.27,855.88c0,1.41-1.37,2.55-3.06,2.55s-3.06-1.14-3.06-2.55c0-1.41,1.37-2.55,3.06-2.55
		S1620.27,854.47,1620.27,855.88z"/>
	<path class="st6" d="M1652.68,855.88c0,1.41-1.37,2.55-3.06,2.55c-1.69,0-3.06-1.14-3.06-2.55c0-1.41,1.37-2.55,3.06-2.55
		C1651.31,853.33,1652.68,854.47,1652.68,855.88z"/>
	<ellipse class="st6" cx="1455.17" cy="885.76" rx="3.06" ry="2.55"/>
	<ellipse class="st6" cx="1487.58" cy="885.76" rx="3.06" ry="2.55"/>
	<path class="st6" d="M1523.05,885.76c0,1.41-1.37,2.55-3.06,2.55c-1.69,0-3.06-1.14-3.06-2.55c0-1.41,1.37-2.55,3.06-2.55
		C1521.68,883.21,1523.05,884.35,1523.05,885.76z"/>
	<path class="st6" d="M1555.46,885.76c0,1.41-1.37,2.55-3.06,2.55c-1.69,0-3.06-1.14-3.06-2.55c0-1.41,1.37-2.55,3.06-2.55
		C1554.09,883.21,1555.46,884.35,1555.46,885.76z"/>
	<path class="st6" d="M1587.86,885.76c0,1.41-1.37,2.55-3.06,2.55c-1.69,0-3.06-1.14-3.06-2.55c0-1.41,1.37-2.55,3.06-2.55
		C1586.49,883.21,1587.86,884.35,1587.86,885.76z"/>
	<ellipse class="st6" cx="1617.21" cy="885.76" rx="3.06" ry="2.55"/>
	<path class="st6" d="M1652.68,885.76c0,1.41-1.37,2.55-3.06,2.55c-1.69,0-3.06-1.14-3.06-2.55c0-1.41,1.37-2.55,3.06-2.55
		C1651.31,883.21,1652.68,884.35,1652.68,885.76z"/>
	<ellipse class="st6" cx="1455.17" cy="915.65" rx="3.06" ry="2.55"/>
	<ellipse class="st6" cx="1487.58" cy="915.65" rx="3.06" ry="2.55"/>
	<path class="st6" d="M1523.05,915.65c0,1.41-1.37,2.55-3.06,2.55c-1.69,0-3.06-1.14-3.06-2.55c0-1.41,1.37-2.55,3.06-2.55
		C1521.68,913.1,1523.05,914.24,1523.05,915.65z"/>
	<path class="st6" d="M1555.46,915.65c0,1.41-1.37,2.55-3.06,2.55c-1.69,0-3.06-1.14-3.06-2.55c0-1.41,1.37-2.55,3.06-2.55
		C1554.09,913.1,1555.46,914.24,1555.46,915.65z"/>
	<path class="st6" d="M1587.86,915.65c0,1.41-1.37,2.55-3.06,2.55c-1.69,0-3.06-1.14-3.06-2.55c0-1.41,1.37-2.55,3.06-2.55
		C1586.49,913.1,1587.86,914.24,1587.86,915.65z"/>
	<ellipse class="st6" cx="1617.21" cy="915.65" rx="3.06" ry="2.55"/>
	<path class="st6" d="M1652.68,915.65c0,1.41-1.37,2.55-3.06,2.55c-1.69,0-3.06-1.14-3.06-2.55c0-1.41,1.37-2.55,3.06-2.55
		C1651.31,913.1,1652.68,914.24,1652.68,915.65z"/>
	<path class="st6" d="M1458.23,945.53c0,1.41-1.37,2.55-3.06,2.55c-1.69,0-3.06-1.14-3.06-2.55c0-1.41,1.37-2.55,3.06-2.55
		C1456.86,942.98,1458.23,944.12,1458.23,945.53z"/>
	<path class="st6" d="M1490.64,945.53c0,1.41-1.37,2.55-3.06,2.55c-1.69,0-3.06-1.14-3.06-2.55c0-1.41,1.37-2.55,3.06-2.55
		C1489.27,942.98,1490.64,944.12,1490.64,945.53z"/>
	<path class="st6" d="M1523.05,945.53c0,1.41-1.37,2.55-3.06,2.55c-1.69,0-3.06-1.14-3.06-2.55c0-1.41,1.37-2.55,3.06-2.55
		C1521.68,942.98,1523.05,944.12,1523.05,945.53z"/>
	<path class="st6" d="M1555.46,945.53c0,1.41-1.37,2.55-3.06,2.55c-1.69,0-3.06-1.14-3.06-2.55c0-1.41,1.37-2.55,3.06-2.55
		C1554.09,942.98,1555.46,944.12,1555.46,945.53z"/>
	<path class="st6" d="M1587.86,945.53c0,1.41-1.37,2.55-3.06,2.55c-1.69,0-3.06-1.14-3.06-2.55c0-1.41,1.37-2.55,3.06-2.55
		C1586.49,942.98,1587.86,944.12,1587.86,945.53z"/>
	<path class="st6" d="M1620.27,945.53c0,1.41-1.37,2.55-3.06,2.55s-3.06-1.14-3.06-2.55c0-1.41,1.37-2.55,3.06-2.55
		S1620.27,944.12,1620.27,945.53z"/>
	<path class="st6" d="M1652.68,945.53c0,1.41-1.37,2.55-3.06,2.55c-1.69,0-3.06-1.14-3.06-2.55c0-1.41,1.37-2.55,3.06-2.55
		C1651.31,942.98,1652.68,944.12,1652.68,945.53z"/>
</g>
<g class="st2">
	<g>
		<path class="st1" d="M1922,1.6h-162.78c0.26,0.31,0.5,0.59,0.77,0.91c-1.65,1.01-3.3,2.03-5.01,3.09c-1.14-1.3-2.28-2.59-3.5-3.99
			h-15.53c-0.71,0.43-1.42,0.85-2.13,1.28c-0.38-0.43-0.75-0.85-1.13-1.28h-62.57c1.52,1.9,3.42,4.28,5.08,6.35
			c-2.48,1.53-5.44,3.35-7.87,4.84c-2.06-2.27-4.5-4.96-6.39-7.05c2.3-1.15,5.35-2.69,8.25-4.15h-17.72
			c1.25,1.43,3.02,2.59,5.26,3.58c-5.94,0.55-9.84,2.86-10.83,7.39c-1.04,4.77,2.03,8.02,7.37,10.13
			c-7.44,1.34-10.85,4.02-11.18,8.53c-0.27,3.64,2.56,7.55,6.89,8.41c2.49,0.5,5.62,0.44,7.9-0.42c2.39-0.9,4.12-3.04,5.42-4.07
			c1.57,2.35,3.42,5.12,5.32,7.97c-3.94,0.65-6.57,3.09-8.24,6.4c-0.69,4.66,1.24,8.18,6.43,10.32c0.44,0.18,0.71,0.66,1.06,1.01
			c-5.93-0.08-9.95,2.49-10.97,7.03c-0.89,3.97,1.99,8.09,6.61,9.46c5.52,1.64,10.2-0.35,13.96-6.09c-0.11,4.64,2.36,7.75,7.29,9.66
			c-7.64,1.93-10.82,4.64-10.83,9.05c-0.01,3.73,2.92,7.38,7.36,8.1c2.51,0.41,5.44,0.05,7.91-0.64c2.08-0.58,3.94-1.7,5.83-2.73
			c0.74,3.14,3.21,5.38,6.99,6.99c-7.27,1.61-10.41,4.16-10.77,8.51c-0.3,3.63,2.51,7.6,6.81,8.44c2.6,0.5,5.73,0.27,8.26-0.48
			c2.49-0.73,4.52-2.53,5.76-3.26c-0.1,2.8,2.83,5.52,7.61,7.66c-5.94,0.67-9.91,2.72-10.86,7.43c-0.96,4.77,2.2,7.74,7.18,9.94
			c-6.38,0.47-10.08,3.01-10.72,7.11c-0.63,4.04,1.82,7.61,6.21,9.04c4.36,1.43,9.7,0.3,11.8-3.18c1.24-2.06,1.81-4.9,1.17-7.09
			c-0.61-2.11-3.14-3.84-4.85-5.76c4.13-0.59,7.48-2.32,9.08-5.94c0.17-0.39,0.8-0.63,1.23-0.94c-1.47,4.33,1.7,6.94,5.25,9.41
			c-7.27,2.67-9.82,5.58-8.99,10.12c0.7,3.83,4.08,6.61,8.7,7.14c4.52,0.52,8.84-1.51,10.66-5.01c2.06-3.97,0.52-7.58-4.37-10.99
			c2.78-1.52,5.7-3.13,8.18-4.49c2.1,2.04,4.45,4.31,6.75,6.55c-5.01,0.84-8.58,3.41-9.17,8.22c-0.4,3.3,2.05,6.71,5.77,8.15
			c5.92,2.29,10.42,0.3,14.27-3.93c1.15,4.63,4.15,7.48,9.29,8.04c5.46,0.59,9.2-1.86,11.7-6.3c0.23,4.65,2.76,7.53,7.71,9.41
			c-1.51,0.31-2.48,0.47-3.43,0.7c-4.62,1.09-7.73,4.46-7.67,8.3c0.06,4,3.41,7.37,8.2,8.27c4.57,0.85,9.04-0.95,11.3-4.53
			c0.47-0.75,1.06-1.45,1.6-2.17c-0.24,4.84,2.03,8.5,6.76,9.48c2.58,0.53,5.71,0.24,8.27-0.48c2.55-0.72,4.7-2.43,6.01-3.14
			c0.74,3.7,3.35,6.53,8.42,7.26c5.91,0.86,9.66-1.73,12.18-6.13c1.25,5.81,4.05,8.79,9.16,9.36c5.73,0.65,9.47-1.83,11.87-6.17
			c1.4,5.84,4.13,8.74,9.2,9.31c5.73,0.65,9.48-1.82,12.05-6.5c0.29,4.38,2.33,7.4,7.07,9.36c-6.9,1.25-10.15,4.13-10.23,8.48
			c-0.07,3.8,2.95,7.26,7.2,8.24c4.69,1.08,9.62-0.68,11.82-4.22c2.48-3.98,0.99-7.8-4.11-11.49c2.85-1.56,5.84-3.2,8.31-4.55
			c2.03,2.21,4.23,4.62,6.32,6.9c-5.73,1.5-8.58,4.35-8.39,8.77c0.16,3.67,3.28,6.91,7.45,7.74c2.77,0.55,5.71,0.19,7.96-0.97
			v-14.32c-0.15-0.14-0.3-0.28-0.42-0.41c0.14-0.1,0.28-0.2,0.42-0.31v-52c-1.59,0.93-3.17,1.86-4.68,2.75
			c-1.52-1.91-3.13-3.95-4.76-5.99c2.11-1.18,4.52-2.52,6.89-3.84c0.83,0.92,1.69,1.87,2.54,2.83v-11.48
			c-0.24,0.15-0.48,0.29-0.73,0.44c-1.5-1.86-2.94-3.64-4.36-5.4c1.6-0.91,3.33-1.88,5.08-2.87V117c-0.23-0.29-0.47-0.58-0.7-0.87
			c0.23-0.13,0.47-0.27,0.7-0.4V1.6z M1905.68,109.96c1.24,1.42,2.47,2.84,3.82,4.38c-1.92,1.18-3.68,2.26-5.44,3.35
			c-1.22-1.54-2.44-3.09-3.7-4.68C1902.12,111.99,1903.91,110.97,1905.68,109.96z M1905.17,95.97c1.52-0.91,2.73-1.63,4.14-2.48
			c0.9,1.05,1.79,2.09,2.82,3.31c-1.33,0.9-2.64,1.79-4.15,2.81C1907.05,98.39,1906.15,97.23,1905.17,95.97z M1906.44,132.02
			c-1.92,1.06-3.76,2.07-5.69,3.14c-1.42-1.59-2.88-3.21-4.36-4.85c1.79-1.07,3.69-2.22,5.6-3.36
			C1903.37,128.52,1904.82,130.18,1906.44,132.02z M1895.43,56.25c0.86,0.93,1.58,1.71,2.41,2.61c-1.14,0.65-2.11,1.21-3.24,1.86
			c-0.75-0.87-1.38-1.6-2.19-2.54C1893.37,57.57,1894.3,56.98,1895.43,56.25z M1891.78,73.45c0.94,1,1.82,1.93,2.85,3.03
			c-1.27,0.8-2.49,1.58-3.92,2.48c-0.98-1.22-1.73-2.15-2.66-3.32C1889.21,74.96,1890.37,74.28,1891.78,73.45z M1888.2,90.43
			c0.87,1.01,1.76,2.04,2.78,3.23c-1.44,0.97-2.82,1.92-4.34,2.95c-1-1.12-1.94-2.18-3.12-3.52
			C1885.14,92.17,1886.54,91.38,1888.2,90.43z M1884.67,107.17c1.2,1.29,2.41,2.59,3.74,4.01c-1.59,0.91-3.18,1.81-4.93,2.81
			c-1.09-1.32-2.11-2.55-3.21-3.87C1881.78,109.12,1883.19,108.17,1884.67,107.17z M1879.91,132.51c-1.36-1.63-2.8-3.37-4.38-5.26
			c1.75-0.9,3.66-1.87,5.59-2.85c1.49,1.56,2.94,3.07,4.42,4.6C1883.58,130.22,1881.8,131.33,1879.91,132.51z M1882.86,146.51
			c-2.22,1.33-4.63,2.77-6.96,4.17c-1.46-1.85-3.05-3.87-4.69-5.95c2.16-1.19,4.51-2.48,6.82-3.75
			C1879.57,142.74,1881.23,144.64,1882.86,146.51z M1874.42,52.98c0.91,1.08,1.55,1.84,2.3,2.73c-1.07,0.65-2.05,1.24-3.26,1.98
			c-0.77-0.91-1.45-1.72-2.28-2.7C1872.24,54.34,1873.19,53.75,1874.42,52.98z M1870.77,70.26c0.99,1.12,1.84,2.1,2.78,3.17
			c-1.15,0.69-2.23,1.33-3.4,2.03c-0.97-1.1-1.83-2.09-2.89-3.29C1868.61,71.43,1869.63,70.88,1870.77,70.26z M1867.33,87.59
			c1.12,1.21,2.1,2.26,3.18,3.42c-1.36,0.82-2.72,1.63-4.21,2.53c-1.06-1.22-2.05-2.36-3.17-3.65
			C1864.52,89.13,1865.82,88.41,1867.33,87.59z M1863.66,104.58c1.21,1.34,2.25,2.5,3.43,3.81c-1.44,1-2.91,2.01-4.44,3.06
			c-1.11-1.43-2.19-2.81-3.36-4.31C1860.68,106.33,1862.08,105.51,1863.66,104.58z M1858.8,129.37c-1.36-1.63-2.83-3.38-4.37-5.22
			c1.93-1.09,4.02-2.28,6.16-3.49c1.47,1.73,2.88,3.4,4.27,5.03C1862.84,126.92,1860.85,128.13,1858.8,129.37z M1861.8,143.34
			c-2.4,1.46-4.76,2.89-6.98,4.24c-1.53-1.93-3.18-4.02-4.75-6c2.1-1.14,4.46-2.42,6.89-3.73
			C1858.47,139.57,1860.18,141.51,1861.8,143.34z M1853.6,50.09c0.79,0.89,1.45,1.62,2.25,2.51c-1,0.6-1.87,1.12-2.89,1.73
			c-0.77-0.76-1.48-1.47-2.43-2.41C1851.58,51.29,1852.53,50.72,1853.6,50.09z M1849.88,67.27c0.99,1.06,1.89,2.03,2.93,3.16
			c-1.19,0.83-2.3,1.61-3.6,2.51c-1.06-1.37-1.92-2.48-2.91-3.76C1847.56,68.51,1848.67,67.92,1849.88,67.27z M1846.79,83.97
			c1.12,1.28,2.25,2.56,3.46,3.95c-1.76,1.09-3.25,2.02-4.85,3.01c-1.12-1.39-2.26-2.81-3.45-4.29
			C1843.57,85.76,1845.1,84.91,1846.79,83.97z M1843.25,100.98c1.02,1.28,2.1,2.63,3.28,4.11c-1.66,1.11-3.35,2.24-5.19,3.47
			c-1.27-1.44-2.56-2.89-3.85-4.35C1839.4,103.13,1841.31,102.06,1843.25,100.98z M1837.59,126.35c-1.25-1.62-2.49-3.24-3.76-4.89
			c1.94-1.2,3.89-2.41,5.84-3.62c1.4,1.53,2.82,3.07,4.31,4.69C1841.73,123.88,1839.66,125.12,1837.59,126.35z M1840.78,140.22
			c-2.39,1.45-4.76,2.89-7.02,4.27c-1.55-1.94-3.26-4.07-4.87-6.08c2.2-1.22,4.64-2.57,6.97-3.86
			C1837.45,136.37,1839.17,138.36,1840.78,140.22z M1832.89,46.5c0.91,0.92,1.8,1.83,2.93,2.99c-1.42,0.86-2.6,1.57-3.88,2.34
			c-0.88-1.08-1.7-2.07-2.66-3.25C1830.45,47.91,1831.53,47.28,1832.89,46.5z M1829.35,63.57c1.06,1.17,2.08,2.29,3.24,3.56
			c-1.67,1.03-3.06,1.88-4.5,2.77c-1.01-1.24-1.98-2.44-3.11-3.83C1826.39,65.27,1827.77,64.48,1829.35,63.57z M1825.8,80.64
			c1.15,1.35,2.28,2.68,3.5,4.11c-1.61,1.02-3.26,2.06-5.06,3.2c-1.3-1.59-2.47-3.03-3.64-4.47
			C1822.34,82.53,1824.07,81.59,1825.8,80.64z M1782,82.12c-1.41-1.66-2.82-3.33-4.24-5c2.03-1.11,3.98-2.19,5.95-3.26
			c1.27,1.5,2.6,3.07,4,4.72C1785.87,79.72,1783.94,80.92,1782,82.12z M1784.5,96.22c-2.02,1.25-4.23,2.63-6.34,3.94
			c-1.59-1.88-3.19-3.77-4.71-5.57c2.15-1.17,4.43-2.41,6.65-3.63C1781.44,92.56,1782.92,94.34,1784.5,96.22z M1793.96,128.34
			c1.76,1.92,3.53,3.86,5.13,5.61c-2.47,1.49-5.16,3.12-7.72,4.66c-1.29-1.81-2.85-4.02-4.34-6.13
			C1789.21,131.18,1791.64,129.72,1793.96,128.34z M1795.23,120.75c-1.52-1.78-3.13-3.68-4.67-5.49c2.13-1.17,4.48-2.46,6.93-3.8
			c1.27,1.58,2.75,3.42,4.09,5.08C1799.48,117.92,1797.27,119.39,1795.23,120.75z M1799.3,103.01c-1.39-1.65-2.86-3.39-4.42-5.24
			c2.03-1.12,4.18-2.3,6.24-3.44c1.32,1.6,2.71,3.28,4.12,4.99C1803.29,100.52,1801.33,101.74,1799.3,103.01z M1803.15,84.97
			c-1.29-1.52-2.62-3.1-3.94-4.65c1.86-1.03,3.71-2.06,5.54-3.07c1.19,1.41,2.4,2.85,3.75,4.45
			C1806.7,82.81,1805,83.84,1803.15,84.97z M1814.8,131.24c1.64,1.9,3.5,4.03,5.08,5.85c-2.37,1.43-4.93,2.97-7.29,4.39
			c-1.5-1.91-3.26-4.14-4.93-6.27C1809.98,133.92,1812.43,132.56,1814.8,131.24z M1816.47,123.45c-1.32-1.73-2.57-3.37-3.91-5.13
			c1.86-1.14,3.9-2.39,5.93-3.63c1.29,1.61,2.66,3.31,3.99,4.97C1820.46,120.93,1818.38,122.25,1816.47,123.45z M1820.46,105.98
			c-1.33-1.58-2.75-3.26-4.23-5c1.87-1.04,3.88-2.16,5.89-3.28c1.32,1.59,2.69,3.24,3.94,4.75
			C1824.08,103.7,1822.29,104.83,1820.46,105.98z M1815.66,25.8c0.93,1.08,1.64,1.9,2.5,2.89c-1.19,0.79-2.31,1.53-3.54,2.35
			c-0.89-1.05-1.72-2.02-2.69-3.16C1813.19,27.18,1814.29,26.57,1815.66,25.8z M1811.86,42.96c1.02,1.13,2.04,2.25,3.08,3.41
			c-1.38,0.88-2.67,1.7-4.19,2.66c-1.03-1.25-1.94-2.37-3.02-3.67C1809.05,44.6,1810.33,43.85,1811.86,42.96z M1808.4,60.14
			c1.16,1.37,2.21,2.62,3.29,3.9c-1.49,0.94-2.97,1.88-4.64,2.93c-1.16-1.35-2.35-2.73-3.6-4.19
			C1805.15,61.88,1806.78,61,1808.4,60.14z M1798.24,5.53c0.76,0.86,1.47,1.66,2.34,2.64c-1.17,0.78-2.27,1.5-3.55,2.35
			c-0.85-0.92-1.58-1.72-2.51-2.72C1795.74,7.05,1796.89,6.35,1798.24,5.53z M1794.87,22.69c0.94,1,1.82,1.95,2.8,2.99
			c-1.6,1-2.87,1.79-4.22,2.64c-0.83-1.02-1.66-2.04-2.6-3.19C1792.16,24.33,1793.42,23.57,1794.87,22.69z M1790.99,39.46
			c1.11,1.25,2.25,2.52,3.41,3.83c-1.56,0.96-3.13,1.93-4.75,2.93c-1.17-1.38-2.31-2.71-3.5-4.11
			C1787.72,41.25,1789.24,40.42,1790.99,39.46z M1787.41,56.61c1.18,1.43,2.36,2.85,3.56,4.3c-1.68,1.05-3.36,2.1-5.13,3.21
			c-1.36-1.61-2.57-3.04-3.84-4.54C1783.78,58.61,1785.59,57.61,1787.41,56.61z M1777.4,1.96c1.03,1.22,1.96,2.3,3.08,3.62
			c-1.55,0.96-2.93,1.8-4.37,2.69c-1.06-1.23-2.07-2.41-3.26-3.79C1774.33,3.66,1775.8,2.84,1777.4,1.96z M1773.71,19.25
			c0.96,1.22,1.87,2.37,2.84,3.59c-1.47,0.95-2.8,1.8-4.21,2.7c-1.05-1.27-2.02-2.45-3.05-3.71
			C1770.69,21.02,1772.09,20.2,1773.71,19.25z M1770.09,35.89c1.25,1.51,2.38,2.87,3.58,4.32c-1.6,1.01-3.26,2.05-5.09,3.2
			c-1.22-1.42-2.49-2.88-3.88-4.49C1766.42,37.96,1768.19,36.96,1770.09,35.89z M1766.4,53.14c1.26,1.5,2.58,3.06,3.96,4.69
			c-1.96,1.19-3.74,2.27-5.64,3.43c-1.33-1.53-2.76-3.16-4.22-4.83C1762.37,55.39,1764.36,54.28,1766.4,53.14z M1762.7,70.35
			c1.32,1.58,2.77,3.32,4.27,5.13c-1.92,1.19-3.97,2.46-6.11,3.78c-1.56-1.82-3.05-3.57-4.58-5.35
			C1758.26,72.81,1760.48,71.59,1762.7,70.35z M1763.78,93.14c-2.23,1.38-4.57,2.82-6.79,4.2c-1.6-1.95-3.26-3.98-4.91-5.99
			c2.1-1.14,4.55-2.47,7.01-3.81C1760.52,89.26,1762.19,91.25,1763.78,93.14z M1752.81,15.65c1,1.29,2,2.57,3.12,4.03
			c-1.67,1.1-3.38,2.23-5.02,3.31c-1.33-1.46-2.54-2.78-3.81-4.17C1748.95,17.79,1750.86,16.73,1752.81,15.65z M1749.25,32.72
			c1.22,1.42,2.44,2.84,3.77,4.38c-1.81,1.12-3.72,2.31-5.72,3.55c-1.19-1.5-2.39-3-3.58-4.5
			C1745.6,34.99,1747.43,33.85,1749.25,32.72z M1745.41,49.61c1.3,1.6,2.73,3.36,4.21,5.18c-1.92,1.18-3.98,2.44-6.07,3.72
			c-1.49-1.71-3.05-3.51-4.61-5.3C1741.11,52,1743.27,50.8,1745.41,49.61z M1746.34,72.48c-2.08,1.2-4.1,2.37-6.14,3.54
			c-1.49-1.68-3.14-3.52-4.87-5.47c1.99-1.18,4.23-2.51,6.36-3.78C1743.2,68.62,1744.84,70.63,1746.34,72.48z M1731.83,12.04
			c1.29,1.59,2.69,3.32,4.09,5.05c-1.98,1.21-3.95,2.42-5.93,3.64c-1.48-1.71-2.98-3.45-4.45-5.16
			C1727.67,14.38,1729.72,13.23,1731.83,12.04z M1728.14,29.26c1.24,1.65,2.54,3.38,3.81,5.07c-1.78,1.09-3.55,2.17-5.29,3.23
			c-1.36-1.59-2.76-3.22-4.16-4.86C1724.35,31.57,1726.28,30.39,1728.14,29.26z M1724.64,46.57c1.4,1.59,2.91,3.31,4.48,5.1
			c-2,1.19-4.16,2.47-6.23,3.7c-1.53-1.72-3.18-3.58-4.86-5.47C1720.2,48.81,1722.39,47.7,1724.64,46.57z M1719.25,73.87
			c-1.64-2.02-3.5-4.32-5.31-6.54c2.21-1.09,4.64-2.28,6.98-3.43c1.68,1.81,3.46,3.73,5.18,5.59
			C1723.91,70.89,1721.45,72.46,1719.25,73.87z M1723.26,86.96c-2.49,1.55-5.43,3.37-7.82,4.85c-1.8-2.16-3.97-4.78-5.83-7.02
			c2.4-1.2,5.44-2.72,8.26-4.13C1719.64,82.73,1721.55,84.96,1723.26,86.96z M1710.84,8.38c1.46,1.83,2.96,3.71,4.54,5.69
			c-1.83,1.07-3.9,2.28-5.99,3.51c-1.65-1.77-3.4-3.66-5.03-5.41C1706.5,10.92,1708.69,9.64,1710.84,8.38z M1707.41,26.35
			c1.28,1.5,2.76,3.22,4.25,4.96c-1.94,1.4-4.04,2.9-6.08,4.37c-1.57-1.85-3.34-3.93-5.03-5.93
			C1702.66,28.7,1704.97,27.56,1707.41,26.35z M1704.4,42.91c1.62,1.86,3.41,3.91,4.95,5.67c-2.51,1.59-5.2,3.29-7.5,4.74
			c-1.45-1.93-3.13-4.17-4.65-6.19C1699.42,45.81,1701.98,44.32,1704.4,42.91z M1706.02,66.22c-2.53,1.57-5.41,3.35-7.9,4.89
			c-1.81-2.14-4.04-4.79-5.93-7.04c2.44-1.23,5.58-2.8,8.39-4.21C1702.39,61.99,1704.37,64.3,1706.02,66.22z M1690.15,5.44
			c1.62,1.8,3.44,3.81,5.1,5.64c-2.38,1.55-4.79,3.12-6.85,4.47c-1.7-2.05-3.61-4.37-5.49-6.64
			C1685.01,7.91,1687.59,6.66,1690.15,5.44z M1686.95,22.29c1.74,2.07,3.64,4.31,5.31,6.3c-2.48,1.55-5.33,3.32-7.64,4.77
			c-1.78-2.13-3.89-4.67-5.73-6.87C1681.27,25.25,1684.2,23.72,1686.95,22.29z M1683.38,39.3c1.45,2,3.18,4.38,4.66,6.42
			c-2.32,1.6-5.02,3.47-7.31,5.05c-1.45-2-3.29-4.54-4.98-6.87C1678.11,42.47,1680.86,40.81,1683.38,39.3z M1662.91,31.03
			c-0.5-3.35-2.8-6.35-7.6-7.9c5.03-0.25,8.54-2.26,10.42-5.07c2.1,2.58,4.3,5.28,6.06,7.45
			C1669.15,27.16,1665.94,29.15,1662.91,31.03z M1676.45,68.69c-0.79-3.79-3.29-7.28-9.43-7.84c5.18-0.44,10.19-1.13,12.21-5.34
			c2.24,2.72,4.55,5.53,6.32,7.67C1682.93,64.77,1679.65,66.75,1676.45,68.69z M1693.82,89.32c-0.6-3.13-2.66-6.27-7.52-7.79
			c4.91-0.31,8.44-2.27,10.31-5.11c2.05,2.56,4.17,5.21,6,7.51C1700.12,85.45,1696.9,87.43,1693.82,89.32z M1711.11,110.1
			c-0.51-3.2-2.65-6.26-6.56-7.45c3.22-1.63,6.79-3.44,9.75-4.95c1.68,2.04,3.89,4.71,5.67,6.87
			C1717.38,106.19,1714.17,108.2,1711.11,110.1z M1728.94,133.13c-1.11-4.32-2.14-8.68-8.45-10.24c5.02-0.24,8.79-1.99,10.72-5.21
			c2.13,2.61,4.36,5.35,6.54,8.02C1733.81,126.51,1729.49,128.19,1728.94,133.13z M1732.8,112.74c-1.81-2.23-4.01-4.94-5.92-7.29
			c2.22-1.04,5.13-2.4,7.79-3.64c1.77,1.9,3.83,4.11,5.5,5.91C1737.76,109.36,1734.97,111.26,1732.8,112.74z M1736.36,93.94
			c-1.61-1.82-3.39-3.84-5.17-5.84c2.21-1.1,4.69-2.32,7.07-3.51c1.68,1.84,3.44,3.76,5.01,5.48
			C1741.02,91.33,1738.62,92.68,1736.36,93.94z M1749.82,132.18c-2.08-2.05-4.28-4.2-6.05-5.94c2.54-1.2,5.55-2.61,8.35-3.93
			c1.41,1.7,3.13,3.77,4.67,5.63C1754.62,129.26,1752.15,130.76,1749.82,132.18z M1753.7,114.75c-1.71-1.9-3.63-4.02-5.46-6.05
			c2.3-1.3,4.81-2.72,7.12-4.03c1.67,1.94,3.51,4.09,5.32,6.2C1758.48,112.09,1755.93,113.51,1753.7,114.75z M1771.21,150.3
			c-1.54,0.82-2.76,2.05-3.75,2.81c-2.37-2.41-4.87-4.95-6.75-6.87c2.53-1.4,5.8-3.21,8.44-4.67c1.86,2.19,4.05,4.78,6.19,7.3
			C1774.47,149.16,1772.68,149.52,1771.21,150.3z M1770.29,135.88c-1.35-1.94-3-4.33-4.63-6.67c2.09-1.2,4.65-2.67,7.14-4.1
			c1.54,1.96,3.16,4.01,4.66,5.91C1775.19,132.56,1772.66,134.27,1770.29,135.88z M1774.21,118.26c-1.55-1.94-3.28-4.12-4.98-6.25
			c2.29-1.26,4.75-2.6,7.21-3.95c1.52,1.8,3.25,3.86,4.86,5.78C1778.95,115.31,1776.44,116.87,1774.21,118.26z M1787.65,156.67
			c-1.77-2.19-3.98-4.93-5.88-7.29c2.39-1.22,5.52-2.82,8.45-4.31c1.72,1.98,3.88,4.45,5.7,6.54
			C1793.36,153.18,1790.22,155.1,1787.65,156.67z M1804.75,179.74c-0.94-4.22-2.18-8.28-8.22-9.8c5.1-0.25,8.92-2.09,10.7-5.17
			c2.19,2.59,4.5,5.33,6.78,8.04C1809.74,173.21,1806.22,175.51,1804.75,179.74z M1808.72,159.75c-1.6-2.08-3.64-4.75-5.51-7.19
			c2.31-1.2,5.24-2.72,7.96-4.13c1.87,2.09,3.89,4.35,5.6,6.27C1814.18,156.33,1811.15,158.23,1808.72,159.75z M1825.72,182.98
			c-0.56-4.95-2.65-8.14-6.48-9.4c3.18-1.68,6.6-3.49,9.41-4.97c1.84,2.12,4.11,4.75,6.31,7.29
			C1831.27,176.41,1827.66,178.25,1825.72,182.98z M1829.79,162.69c-1.57-2.06-3.49-4.58-5.22-6.85c2.34-1.28,5.08-2.77,7.73-4.22
			c1.67,1.93,3.65,4.19,5.43,6.25C1835.24,159.38,1832.28,161.18,1829.79,162.69z M1846.61,184.3c-0.26-3.22-2.58-6.29-6.16-7.61
			c3.1-1.63,6.52-3.42,9.28-4.87c1.83,2.12,4.06,4.71,5.83,6.76C1852.9,180.27,1849.63,182.37,1846.61,184.3z M1850.88,165.74
			c-1.5-1.99-3.37-4.45-5.11-6.75c2.34-1.3,5.05-2.81,7.52-4.18c1.83,2.04,3.84,4.29,5.51,6.15
			C1856.28,162.47,1853.46,164.18,1850.88,165.74z M1867.77,189.38c-0.24-5.02-2.49-7.96-6.04-9.5c3.14-1.72,6.41-3.51,9.03-4.94
			c1.9,2.18,4.15,4.76,6.3,7.23C1873.25,182.72,1869.73,184.59,1867.77,189.38z M1871.95,168.86c-1.45-1.95-3.25-4.36-5.03-6.77
			c2.17-1.19,4.88-2.68,7.5-4.12c1.72,1.95,3.72,4.21,5.4,6.11C1877.23,165.65,1874.49,167.31,1871.95,168.86z M1888.94,192.08
			c-0.52-4.54-2.47-7.68-6.26-9.05c3.19-1.7,6.4-3.4,9.26-4.92c1.82,2.06,4.17,4.71,6.39,7.22
			C1894.4,185.73,1890.97,187.68,1888.94,192.08z M1893.06,172.06c-1.48-2-3.29-4.43-5.1-6.87c2.02-1.06,4.59-2.4,6.92-3.61
			c1.84,1.9,3.81,3.95,5.58,5.77C1898.09,168.86,1895.47,170.53,1893.06,172.06z M1896.8,153.29c-1.58-1.83-3.16-3.66-4.68-5.43
			c2.06-1.04,4.28-2.16,6.52-3.29c1.45,1.58,3,3.26,4.67,5.07C1901.24,150.8,1898.98,152.06,1896.8,153.29z M1910.14,192.4
			c-1.86-2.02-4.16-4.54-6.1-6.65c2.38-1.1,5.57-2.59,8.35-3.88c1.9,1.91,4.19,4.23,6.2,6.25
			C1916.11,189.37,1912.98,190.96,1910.14,192.4z M1915.8,164.14c1.82,2.05,3.81,4.3,5.66,6.39c-2.28,1.22-5.06,2.72-7.45,4
			c-1.7-1.95-3.62-4.16-5.39-6.2C1910.94,166.97,1913.51,165.47,1915.8,164.14z M1911.86,82.07c-0.9-1.06-1.77-2.09-2.83-3.34
			c1.47-0.81,2.6-1.43,3.97-2.19c0.95,1.06,1.86,2.08,2.84,3.17C1914.51,80.5,1913.31,81.21,1911.86,82.07z M1915.83,63.91
			c-0.78-0.84-1.49-1.62-2.46-2.67c1.27-0.71,2.18-1.21,3.24-1.81c0.84,0.96,1.56,1.77,2.33,2.65
			C1917.88,62.7,1916.97,63.24,1915.83,63.91z"/>
		<path class="st1" d="M1659.38,49.5c-1.45,4.58-4.44,7.88-10.88,8.38c6.21,4.02,7.86,7.92,5.4,12c-2.15,3.56-7.13,5.38-11.77,4.3
			c-4.56-1.05-7.5-4.75-7.09-8.89c0.45-4.5,4.21-7.07,11.26-7.62c-4.77-1.57-7.78-4.25-7.76-8.66c0.02-4.27,3.93-7.72,9.08-8.21
			c4.92-0.48,9.53,2.11,10.87,6.1c0.3,0.9,0.56,1.81,0.85,2.71C1659.33,49.6,1659.38,49.5,1659.38,49.5z"/>
		<path class="st1" d="M1762.6,173.22c3.39-5.43,7.89-7.46,13.38-6.04c4.35,1.13,7.32,4.83,6.96,8.7c-0.39,4.18-4.18,7.39-9.19,7.77
			c-5.56,0.42-9.2-2.14-11.31-7.83c-2.22,1.39-4.28,3.53-6.82,4.06c-2.62,0.55-6.04,0.1-8.52-0.91c-4.2-1.71-5.62-6.15-3.98-9.8
			c1.68-3.75,6.19-5.89,11.14-5.27C1759.35,164.55,1762.25,167.8,1762.6,173.22z"/>
		<path class="st1" d="M1635.33,2.51c5.69,0.09,10.17,4.04,9.95,8.76c-0.21,4.63-4.79,8.23-10.32,8.14
			c-5.69-0.09-10.17-4.04-9.95-8.76C1625.23,6.03,1629.8,2.42,1635.33,2.51z"/>
		<path class="st1" d="M1874.29,216.86c-5.59-0.06-9.93-3.74-9.91-8.41c0.02-4.79,4.61-8.48,10.37-8.34
			c5.57,0.14,9.84,3.89,9.72,8.57C1884.36,213.34,1879.9,216.92,1874.29,216.86z"/>
		<path class="st1" d="M1863.41,205.36c0,4.67-4.36,8.33-9.96,8.37c-5.75,0.04-10.23-3.74-10.13-8.54c0.1-4.66,4.54-8.25,10.15-8.21
			C1859.06,197.03,1863.41,200.7,1863.41,205.36z"/>
		<path class="st1" d="M1679.65,115.91c-5.6,0.05-10.05-3.55-10.15-8.21c-0.1-4.79,4.38-8.57,10.13-8.54
			c5.6,0.03,9.96,3.7,9.97,8.36C1689.6,112.19,1685.24,115.86,1679.65,115.91z"/>
		<path class="st1" d="M1706.86,128.14c0.05,4.67-4.23,8.35-9.82,8.42c-5.76,0.08-10.25-3.62-10.2-8.41c0.04-4.66,4.4-8.27,10-8.27
			C1702.45,119.88,1706.81,123.48,1706.86,128.14z"/>
		<path class="st1" d="M1821.17,199.15c-0.04,4.69-4.39,8.25-10.03,8.22c-5.62-0.03-9.9-3.66-9.86-8.36
			c0.04-4.69,4.39-8.25,10.03-8.22C1816.93,190.83,1821.21,194.45,1821.17,199.15z"/>
		<path class="st1" d="M1641.36,28.38c0.08,4.71-4.19,8.39-9.81,8.46c-5.65,0.07-10.07-3.5-10.15-8.17
			c-0.08-4.71,4.19-8.39,9.81-8.46C1636.86,20.14,1641.28,23.7,1641.36,28.38z"/>
		<path class="st1" d="M1832.19,210.56c-5.59-0.04-9.91-3.68-9.9-8.35c0.01-4.79,4.53-8.45,10.3-8.33c5.56,0.11,9.81,3.83,9.72,8.51
			C1842.21,207.04,1837.8,210.6,1832.19,210.56z"/>
		<path class="st1" d="M1672.25,86.99c-0.08,4.65-4.49,8.23-10.09,8.19c-5.74-0.03-10.1-3.83-9.92-8.65
			c0.17-4.64,4.66-8.14,10.28-8.04C1668.07,78.6,1672.33,82.32,1672.25,86.99z"/>
		<path class="st1" d="M1790.31,187.72c5.62,0.06,9.87,3.78,9.71,8.52c-0.15,4.54-4.51,8-10.03,7.94c-5.62-0.06-9.86-3.78-9.71-8.52
			C1780.43,191.12,1784.79,187.67,1790.31,187.72z"/>
		<path class="st1" d="M1637.46,46.13c-0.03,4.64-4.48,8.24-10.09,8.14c-5.4-0.09-9.61-3.72-9.58-8.25
			c0.03-4.64,4.48-8.24,10.09-8.14C1633.28,37.98,1637.49,41.6,1637.46,46.13z"/>
		<path class="st1" d="M1779.65,192.78c0.03,4.53-4.25,8.16-9.68,8.21c-5.45,0.05-9.85-3.47-9.95-7.99
			c-0.11-4.67,4.27-8.39,9.87-8.37C1775.33,184.65,1779.62,188.24,1779.65,192.78z"/>
		<path class="st1" d="M1880.44,225.39c0.02,4.48-4.36,8.16-9.74,8.17c-5.37,0.01-9.79-3.64-9.8-8.12
			c-0.02-4.48,4.31-8.11,9.75-8.17C1875.96,217.22,1880.42,220.92,1880.44,225.39z"/>
		<path class="st1" d="M1859.37,222.34c-0.04,4.48-4.47,8.12-9.84,8.08c-5.37-0.03-9.74-3.73-9.7-8.21
			c0.04-4.49,4.41-8.07,9.85-8.08C1854.98,214.13,1859.41,217.88,1859.37,222.34z"/>
		<path class="st1" d="M1702.87,145.69c0.06,4.52-4.25,8.19-9.67,8.24c-5.43,0.05-9.83-3.54-9.89-8.06
			c-0.06-4.52,4.25-8.19,9.67-8.24C1698.4,137.59,1702.81,141.18,1702.87,145.69z"/>
		<path class="st1" d="M1685.6,125.14c-0.03,4.53-4.35,8.11-9.79,8.13c-5.59,0.01-9.97-3.72-9.85-8.39
			c0.12-4.51,4.52-8.03,9.97-7.97C1681.37,116.97,1685.63,120.6,1685.6,125.14z"/>
		<path class="st1" d="M1731.31,160.78c5.63-0.06,10.02,3.56,10.01,8.24c-0.01,4.55-4.25,8.13-9.7,8.18
			c-5.63,0.06-10.02-3.56-10.01-8.24C1721.63,164.41,1725.86,160.83,1731.31,160.78z"/>
		<path class="st1" d="M1658.35,96.22c5.45-0.05,9.84,3.48,9.94,8c0.11,4.67-4.28,8.39-9.88,8.36c-5.44-0.02-9.74-3.62-9.75-8.15
			C1648.64,99.88,1652.92,96.26,1658.35,96.22z"/>
		<path class="st1" d="M1650.97,83.73c-0.02,4.51-4.33,8.11-9.74,8.14c-5.56,0.02-9.97-3.71-9.86-8.35c0.11-4.5,4.5-8.03,9.93-7.98
			C1646.7,75.59,1650.98,79.22,1650.97,83.73z"/>
		<path class="st1" d="M1620.38,1.6h-12.6c-2.12,1.49-3.49,3.69-3.5,6.2c-0.02,4.52,4.26,8.14,9.67,8.2c5.57,0.05,10-3.65,9.93-8.29
			C1623.84,5.23,1622.47,3.06,1620.38,1.6z"/>
		<path class="st1" d="M1758.5,189.63c0.04,4.44-4.43,8.18-9.76,8.17c-5.33-0.01-9.78-3.78-9.7-8.21c0.07-4.33,4.38-7.93,9.58-8.01
			C1753.94,181.49,1758.47,185.18,1758.5,189.63z"/>
		<path class="st1" d="M1623.73,71.12c-5.34-0.07-9.74-3.87-9.6-8.3c0.13-4.45,4.74-8.08,10.05-7.93c5.2,0.15,9.44,3.82,9.42,8.14
			C1633.57,67.49,1629.06,71.19,1623.73,71.12z"/>
		<path class="st1" d="M1828.54,227.89c-5.33,0-9.79-3.74-9.74-8.18c0.05-4.45,4.59-8.13,9.91-8.04c5.19,0.09,9.5,3.7,9.56,8.03
			C1838.33,224.13,1833.87,227.89,1828.54,227.89z"/>
		<path class="st1" d="M1720.13,165.96c-0.08,4.45-4.64,8.12-9.96,8.01c-5.34-0.11-9.7-3.95-9.51-8.38
			c0.18-4.33,4.58-7.87,9.77-7.85C1715.76,157.76,1720.21,161.52,1720.13,165.96z"/>
		<path class="st1" d="M1620.05,25.49c-0.08,4.45-4.64,8.11-9.96,8c-5.34-0.11-9.7-3.95-9.51-8.38c0.19-4.33,4.59-7.87,9.77-7.85
			C1615.69,17.29,1620.13,21.06,1620.05,25.49z"/>
		<path class="st1" d="M1901.49,228.5c0.04,4.48-4.41,8.19-9.78,8.18c-5.37-0.01-9.79-3.76-9.72-8.23c0.07-4.36,4.37-7.95,9.59-8.02
			C1896.95,220.36,1901.45,224.03,1901.49,228.5z"/>
		<path class="st1" d="M1796.03,213.4c0.09,4.26-4.26,8.02-9.42,8.14c-5.24,0.13-9.9-3.7-9.86-8.08c0.04-4.28,4.47-7.97,9.6-7.99
			C1791.48,205.45,1795.95,209.11,1796.03,213.4z"/>
		<path class="st1" d="M1807.32,208.55c5.32-0.07,9.88,3.69,9.86,8.13c-0.03,4.32-4.37,7.99-9.57,8.06
			c-5.32,0.07-9.88-3.69-9.86-8.13C1797.78,212.28,1802.12,208.62,1807.32,208.55z"/>
		<path class="st1" d="M1654.7,113.92c5.13-0.01,9.58,3.66,9.66,7.94c0.07,4.38-4.56,8.22-9.81,8.12c-5.15-0.1-9.52-3.84-9.47-8.1
			C1645.12,117.61,1649.56,113.93,1654.7,113.92z"/>
		<path class="st1" d="M1922,229.13c-1.26-3.01-4.67-5.33-8.7-5.53c-5.14-0.25-9.77,3.17-10.19,7.51c-0.42,4.38,3.84,8.4,9.19,8.66
			c4.36,0.21,8.33-2.22,9.69-5.62V229.13z"/>
		<path class="st1" d="M1727.64,194.55c-5.16-0.04-9.59-3.78-9.54-8.06c0.05-4.3,4.53-7.99,9.67-7.95c5.16,0.04,9.59,3.78,9.54,8.06
			C1737.26,190.9,1732.78,194.59,1727.64,194.55z"/>
		<path class="st1" d="M1616.13,42.88c0.06,4.28-4.34,8-9.5,8.05c-5.13,0.05-9.6-3.61-9.66-7.91c-0.06-4.28,4.34-8,9.5-8.05
			C1611.61,34.92,1616.08,38.58,1616.13,42.88z"/>
		<path class="st1" d="M1584.31,1.6c-0.5,0.95-0.79,1.98-0.79,3.06c-0.03,4.32,4.37,7.98,9.55,7.95c5.19-0.03,9.54-3.73,9.45-8.04
			c-0.02-1.05-0.31-2.05-0.8-2.97H1584.31z"/>
		<path class="st1" d="M1637.53,93.25c5.17,0.07,9.57,3.84,9.48,8.11c-0.09,4.31-4.6,7.97-9.74,7.9c-5.17-0.07-9.57-3.84-9.48-8.11
			C1627.88,96.85,1632.4,93.18,1637.53,93.25z"/>
		<path class="st1" d="M1629.64,80.66c-0.07,4.33-4.59,7.97-9.74,7.86c-5.2-0.12-9.54-3.92-9.34-8.2c0.2-4.22,4.53-7.71,9.56-7.7
			C1625.3,72.63,1629.71,76.36,1629.64,80.66z"/>
		<path class="st1" d="M1681.63,142.58c0.06,4.28-4.36,8.03-9.53,8.08c-5.14,0.05-9.63-3.63-9.69-7.94
			c-0.06-4.28,4.36-8.03,9.53-8.08C1677.08,134.59,1681.57,138.28,1681.63,142.58z"/>
		<path class="st1" d="M1689.26,154.76c5.17-0.04,9.63,3.66,9.61,7.97c-0.02,4.32-4.49,8-9.66,7.93c-5.05-0.06-9.31-3.6-9.42-7.81
			C1679.68,158.56,1684.07,154.81,1689.26,154.76z"/>
		<path class="st1" d="M1775.57,210.34c0.03,4.32-4.37,7.98-9.55,7.95c-5.19-0.03-9.54-3.73-9.45-8.04c0.09-4.21,4.3-7.72,9.36-7.79
			C1771.11,202.38,1775.55,206.01,1775.57,210.34z"/>
		<path class="st1" d="M1633.6,126.5c-5.27-0.02-9.24-3.39-9.17-7.79c0.06-4.38,4.15-7.66,9.44-7.57c5.1,0.09,8.96,3.37,8.99,7.63
			C1642.88,123.17,1638.87,126.51,1633.6,126.5z"/>
		<path class="st1" d="M1706.52,191.19c-5.19-0.05-9.23-3.47-9.22-7.8c0.01-4.44,4.3-7.9,9.64-7.76c5.17,0.13,9.14,3.63,9.03,7.95
			C1715.86,187.9,1711.71,191.24,1706.52,191.19z"/>
		<path class="st1" d="M1660.16,139.42c0.05,4.4-3.92,7.77-9.19,7.78c-5.28,0.01-9.27-3.34-9.24-7.74c0.03-4.27,3.9-7.54,9-7.62
			C1656.03,131.75,1660.11,135.03,1660.16,139.42z"/>
		<path class="st1" d="M1598.5,22.39c-0.08,4.36-4.16,7.63-9.42,7.56c-5.23-0.07-9.16-3.47-9.08-7.85c0.08-4.36,4.16-7.63,9.42-7.56
			C1594.65,14.61,1598.58,18.01,1598.5,22.39z"/>
		<path class="st1" d="M1612.08,60.64c-0.09,4.35-4.22,7.67-9.46,7.6c-5.22-0.07-9.21-3.52-9.12-7.88c0.09-4.35,4.22-7.67,9.46-7.6
			C1608.19,52.83,1612.17,56.27,1612.08,60.64z"/>
		<path class="st1" d="M1908.89,256.93c-5.25-0.06-9.18-3.47-9.06-7.88c0.11-4.36,4.26-7.61,9.55-7.47c5.08,0.13,8.9,3.45,8.88,7.73
			C1918.23,253.69,1914.18,256.99,1908.89,256.93z"/>
		<path class="st1" d="M1897.26,246.16c-0.03,4.36-4.11,7.72-9.35,7.69c-5.23-0.03-9.26-3.42-9.23-7.79
			c0.03-4.36,4.11-7.72,9.35-7.69C1893.27,238.4,1897.3,241.8,1897.26,246.16z"/>
		<path class="st1" d="M1866.82,250.72c-5.23-0.04-9.25-3.44-9.21-7.81c0.04-4.36,4.13-7.71,9.37-7.67
			c5.23,0.04,9.25,3.44,9.21,7.81C1876.15,247.41,1872.06,250.76,1866.82,250.72z"/>
		<path class="st1" d="M1845.82,232.1c5.24-0.01,9.3,3.36,9.3,7.73c0.01,4.37-4.03,7.75-9.28,7.75c-5.24,0.01-9.3-3.36-9.3-7.73
			C1836.54,235.49,1840.58,232.11,1845.82,232.1z"/>
		<path class="st1" d="M1834.02,236.64c0.04,4.38-3.93,7.74-9.17,7.77c-5.25,0.03-9.29-3.27-9.33-7.64
			c-0.04-4.38,3.93-7.74,9.17-7.77C1829.94,228.97,1833.98,232.28,1834.02,236.64z"/>
		<path class="st1" d="M1745.09,214.98c-5.24,0.03-9.33-3.32-9.37-7.68c-0.04-4.37,3.98-7.77,9.21-7.81
			c5.24-0.03,9.33,3.32,9.37,7.68C1754.34,211.54,1750.32,214.94,1745.09,214.98z"/>
		<path class="st1" d="M1616.45,105.76c-5.25,0.04-9.26-3.26-9.26-7.62c-0.01-4.36,3.99-7.67,9.24-7.64
			c5.08,0.03,8.99,3.24,9.08,7.46C1625.58,102.34,1621.67,105.72,1616.45,105.76z"/>
		<path class="st1" d="M1668.39,152.58c5.22,0.05,9.13,3.43,9.03,7.82c-0.1,4.33-4.21,7.56-9.47,7.44
			c-5.05-0.11-8.86-3.41-8.84-7.66C1659.12,155.82,1663.13,152.53,1668.39,152.58z"/>
		<path class="st1" d="M1685.63,172.7c5.06,0.03,9.01,3.33,9.02,7.55c0.01,4.34-4.11,7.69-9.34,7.59c-5.04-0.1-8.9-3.47-8.83-7.71
			C1676.55,175.93,1680.56,172.68,1685.63,172.7z"/>
		<path class="st1" d="M1922,248.85c-0.6,0.98-0.98,2.07-1.02,3.27c-0.05,1.38,0.35,2.65,1.02,3.77V248.85z"/>
		<path class="st1" d="M1594.59,39.95c-0.08,4.33-4.22,7.58-9.46,7.45c-5.02-0.13-8.83-3.49-8.75-7.73
			c0.08-4.33,4.22-7.58,9.46-7.45C1590.87,32.35,1594.67,35.71,1594.59,39.95z"/>
		<path class="st1" d="M1792.49,231c0.04,4.35-3.99,7.7-9.21,7.66c-5.06-0.04-8.97-3.3-9-7.52c-0.04-4.35,3.98-7.7,9.21-7.66
			C1788.54,223.51,1792.45,226.78,1792.49,231z"/>
		<path class="st1" d="M1598.9,69.86c5.08-0.05,9.11,3.19,9.21,7.39c0.1,4.36-3.93,7.78-9.15,7.76c-5.06-0.02-9.01-3.33-9.02-7.54
			C1589.93,73.24,1593.85,69.91,1598.9,69.86z"/>
		<path class="st1" d="M1733.05,204.03c0.04,4.35-3.99,7.7-9.21,7.66c-5.06-0.04-8.97-3.3-9-7.52c-0.04-4.35,3.99-7.7,9.21-7.66
			C1729.1,196.55,1733.01,199.82,1733.05,204.03z"/>
		<path class="st1" d="M1812.88,234.46c-0.14,4.34-4.29,7.54-9.59,7.39c-5.2-0.15-9-3.64-8.77-8.06c0.22-4.21,4.26-7.32,9.39-7.24
			C1809.14,226.63,1813.03,230.06,1812.88,234.46z"/>
		<path class="st1" d="M1562.92,1.6c0.03,4.11,4.01,7.45,8.95,7.48c4.98,0.03,9.06-3.32,9.1-7.47c0-0.01,0-0.01,0-0.02H1562.92z"/>
		<path class="st1" d="M1771.36,227.86c0.04,4.19-3.94,7.58-8.96,7.61c-5.03,0.04-9.09-3.28-9.13-7.47
			c-0.04-4.19,3.94-7.58,8.96-7.61C1767.26,220.35,1771.32,223.67,1771.36,227.86z"/>
		<path class="st1" d="M1577.89,19.11c0,4.08-4.25,7.56-9.14,7.47c-4.76-0.09-8.77-3.5-8.77-7.46c0-4.08,4.25-7.56,9.14-7.47
			C1573.88,11.75,1577.88,15.15,1577.89,19.11z"/>
		<path class="st1" d="M1621.55,115.93c-0.18,4.11-4.57,7.47-9.46,7.22c-4.8-0.24-8.66-3.76-8.49-7.72
			c0.18-4.11,4.57-7.47,9.46-7.22C1617.86,108.45,1621.73,111.97,1621.55,115.93z"/>
		<path class="st1" d="M1711.87,201.13c-0.11,4.11-4.37,7.47-9.28,7.34c-4.93-0.14-8.92-3.72-8.71-7.81
			c0.21-3.98,4.32-7.23,9.09-7.18C1707.9,193.52,1711.98,197.03,1711.87,201.13z"/>
		<path class="st1" d="M1629.74,143.87c-4.93-0.07-8.99-3.59-8.85-7.69c0.13-4.11,4.41-7.46,9.33-7.3c4.78,0.15,8.69,3.55,8.67,7.54
			C1638.85,140.53,1634.66,143.94,1629.74,143.87z"/>
		<path class="st1" d="M1842.19,264.87c-4.89,0.06-9.11-3.45-9.07-7.52c0.04-3.96,4.08-7.34,8.84-7.4c4.89-0.06,9.11,3.45,9.07,7.52
			C1850.98,261.43,1846.95,264.81,1842.19,264.87z"/>
		<path class="st1" d="M1656.17,157.22c-0.11,4.11-4.45,7.51-9.35,7.33c-4.79-0.18-8.71-3.66-8.61-7.63
			c0.11-4.11,4.45-7.51,9.35-7.33C1652.35,149.77,1656.27,153.25,1656.17,157.22z"/>
		<path class="st1" d="M1872.1,260.55c-0.01,4.08-4.27,7.56-9.15,7.45c-4.77-0.1-8.76-3.51-8.76-7.47c0.01-4.08,4.27-7.56,9.15-7.45
			C1868.11,253.18,1872.1,256.59,1872.1,260.55z"/>
		<path class="st1" d="M1573.48,57.21c0.11-4.11,4.37-7.47,9.28-7.34c4.93,0.14,8.92,3.72,8.71,7.81c-0.21,3.98-4.32,7.23-9.09,7.18
			C1577.45,64.82,1573.37,61.31,1573.48,57.21z"/>
		<path class="st1" d="M1750.2,224.74c0.04,4.08-4.18,7.58-9.07,7.52c-4.76-0.06-8.79-3.44-8.84-7.4c-0.04-4.08,4.18-7.58,9.07-7.52
			C1746.12,217.39,1750.16,220.77,1750.2,224.74z"/>
		<path class="st1" d="M1604.95,95.02c-0.02,3.97-4.1,7.38-8.87,7.41c-4.9,0.03-9.13-3.56-8.99-7.63c0.14-3.99,4.31-7.32,9.06-7.25
			C1600.93,87.62,1604.97,91.05,1604.95,95.02z"/>
		<path class="st1" d="M1893.14,263.69c-0.02,3.97-4.09,7.38-8.86,7.42c-4.9,0.04-9.14-3.55-9-7.62c0.14-3.98,4.3-7.33,9.05-7.27
			C1889.11,256.29,1893.16,259.72,1893.14,263.69z"/>
		<path class="st1" d="M1820.95,246.83c4.75-0.03,8.89,3.34,8.98,7.32c0.09,4.08-4.17,7.64-9.07,7.56
			c-4.77-0.07-8.82-3.51-8.79-7.48C1812.1,250.26,1816.18,246.85,1820.95,246.83z"/>
		<path class="st1" d="M1664.55,184.58c-4.75,0.03-8.89-3.34-8.98-7.32c-0.09-4.08,4.17-7.64,9.07-7.56
			c4.77,0.07,8.82,3.51,8.79,7.48C1673.4,181.15,1669.31,184.55,1664.55,184.58z"/>
		<path class="st1" d="M1788.37,247.84c0.12,4.01-3.92,7.45-8.75,7.45c-4.68,0-8.63-3.22-8.75-7.14c-0.12-4.01,3.92-7.45,8.75-7.45
			C1784.31,240.7,1788.25,243.93,1788.37,247.84z"/>
		<path class="st1" d="M1809.56,251.1c0.03,3.97-4.06,7.4-8.83,7.43c-4.76,0.02-8.89-3.38-8.91-7.36c-0.03-3.97,4.06-7.4,8.83-7.43
			C1805.41,243.71,1809.53,247.12,1809.56,251.1z"/>
		<path class="st1" d="M1896.41,266.57c0.2-3.99,4.45-7.31,9.17-7.15c4.79,0.16,8.77,3.71,8.58,7.64c-0.2,3.99-4.45,7.31-9.17,7.15
			C1900.2,274.04,1896.22,270.49,1896.41,266.57z"/>
		<path class="st1" d="M1922,263.66c-2.58,1.28-4.4,3.59-4.45,6.19c-0.05,2.66,1.79,5.07,4.45,6.38V263.66z"/>
		<path class="st1" d="M1578.7,82.22c-4.83-0.01-8.87-3.46-8.74-7.46c0.13-3.92,4.08-7.13,8.76-7.13c4.83,0.01,8.87,3.46,8.74,7.46
			C1587.34,79.01,1583.38,82.22,1578.7,82.22z"/>
		<path class="st1" d="M1573.92,36.67c0,4.03-4.13,7.4-8.94,7.3c-4.7-0.1-8.57-3.39-8.57-7.29c0-4.03,4.13-7.4,8.94-7.3
			C1570.05,29.48,1573.92,32.77,1573.92,36.67z"/>
		<path class="st1" d="M1690.55,197.83c0,4.03-4.12,7.4-8.93,7.3c-4.7-0.1-8.57-3.39-8.57-7.29c0-4.03,4.12-7.4,8.93-7.3
			C1686.68,190.63,1690.55,193.92,1690.55,197.83z"/>
		<path class="st1" d="M1720,214.37c4.81-0.1,8.94,3.28,8.93,7.3c-0.01,3.9-3.88,7.19-8.58,7.28c-4.81,0.1-8.93-3.28-8.93-7.3
			C1711.43,217.75,1715.3,214.46,1720,214.37z"/>
		<path class="st1" d="M1600.92,133.34c-0.07-3.96,3.67-7.2,8.43-7.3c4.89-0.11,8.9,3.18,8.86,7.26c-0.04,3.96-3.87,7.13-8.61,7.15
			C1604.84,140.46,1600.99,137.31,1600.92,133.34z"/>
		<path class="st1" d="M1758.62,252.6c-4.83,0.03-8.56-3.03-8.6-7.05c-0.04-4.02,3.64-7.14,8.46-7.17c4.83-0.03,8.56,3.03,8.6,7.05
			C1767.12,249.45,1763.44,252.57,1758.62,252.6z"/>
		<path class="st1" d="M1635.45,153.92c0.01,4.02-3.74,7.15-8.56,7.16c-4.83,0.01-8.58-3.11-8.59-7.13
			c-0.01-4.02,3.74-7.15,8.56-7.16C1631.68,146.78,1635.44,149.9,1635.45,153.92z"/>
		<path class="st1" d="M1543.99,1.6c1.38,2.37,4.25,3.95,7.71,3.93c3.4-0.02,6.21-1.6,7.56-3.93H1543.99z"/>
		<path class="st1" d="M1600.79,112.51c0.02,4.02-3.66,7.13-8.48,7.15c-4.83,0.02-8.55-3.05-8.58-7.07
			c-0.02-4.02,3.66-7.13,8.48-7.15C1597.04,105.42,1600.76,108.49,1600.79,112.51z"/>
		<path class="st1" d="M1651.95,174.15c-0.09,4-3.88,7.03-8.7,6.96c-4.8-0.07-8.44-3.23-8.35-7.25c0.09-4,3.88-7.03,8.7-6.96
			C1648.41,166.97,1652.04,170.13,1651.95,174.15z"/>
		<path class="st1" d="M1569.86,54.23c0,4.03-3.69,7.08-8.54,7.04c-4.82-0.04-8.45-3.16-8.36-7.2c0.08-3.89,3.68-6.85,8.36-6.89
			C1566.16,47.15,1569.86,50.2,1569.86,54.23z"/>
		<path class="st1" d="M1699.22,225.57c-4.85,0.04-8.55-3-8.56-7.03c-0.01-4.04,3.68-7.09,8.53-7.05c4.68,0.03,8.28,2.99,8.37,6.88
			C1707.65,222.4,1704.04,225.53,1699.22,225.57z"/>
		<path class="st1" d="M1652.36,194.24c0.24-3.84,4.02-6.67,8.74-6.53c4.78,0.14,8.27,3.39,8.01,7.45
			c-0.25,3.97-4.22,6.81-9.11,6.51C1655.42,201.39,1652.11,198.17,1652.36,194.24z"/>
		<path class="st1" d="M1825.56,271.93c-0.06,3.87-3.78,6.88-8.44,6.83c-4.64-0.05-8.25-3.15-8.19-7.03
			c0.06-3.87,3.78-6.88,8.44-6.83C1822.01,264.94,1825.62,268.05,1825.56,271.93z"/>
		<path class="st1" d="M1838.3,281.91c-4.65-0.01-8.29-3.01-8.33-6.88c-0.04-4,3.73-7.1,8.54-7.02c4.62,0.08,8.19,3.16,8.14,7.04
			C1846.6,278.92,1842.96,281.92,1838.3,281.91z"/>
		<path class="st1" d="M1867.72,278.05c0.03,3.88-3.55,6.94-8.19,7c-4.8,0.06-8.55-3.06-8.49-7.06c0.06-3.87,3.72-6.85,8.38-6.84
			C1864.07,271.16,1867.7,274.18,1867.72,278.05z"/>
		<path class="st1" d="M1888.77,281.1c0.08,3.88-3.52,7-8.15,7.07c-4.66,0.07-8.4-2.93-8.48-6.79c-0.08-3.88,3.52-7,8.15-7.07
			C1884.95,274.23,1888.69,277.23,1888.77,281.1z"/>
		<path class="st1" d="M1583.34,91.82c0.02,4.03-3.68,7.08-8.53,7.03c-4.67-0.05-8.23-3.05-8.25-6.95
			c-0.02-4.04,3.68-7.08,8.53-7.03C1579.76,84.92,1583.32,87.92,1583.34,91.82z"/>
		<path class="st1" d="M1548.04,9.01c4.67,0.07,8.22,3.12,8.19,7.04c-0.04,4.02-3.86,7.04-8.73,6.9c-4.64-0.14-8.12-3.27-8-7.19
			C1539.62,11.88,1543.34,8.94,1548.04,9.01z"/>
		<path class="st1" d="M1737.45,235.38c4.69-0.01,8.34,2.97,8.4,6.86c0.06,4.05-3.66,7.14-8.51,7.08c-4.67-0.06-8.24-3.11-8.21-7.02
			C1729.15,238.41,1732.77,235.4,1737.45,235.38z"/>
		<path class="st1" d="M1614.07,150.86c-0.04,3.81-3.86,6.9-8.43,6.83c-4.57-0.08-8.24-3.3-8.1-7.1c0.14-3.68,3.82-6.66,8.24-6.67
			C1610.36,143.9,1614.11,147.05,1614.07,150.86z"/>
		<path class="st1" d="M1544.22,26.65c4.57,0.05,8.27,3.26,8.15,7.06c-0.12,3.8-4.01,6.85-8.57,6.71c-4.42-0.14-7.97-3.22-7.96-6.91
			C1535.85,29.71,1539.65,26.6,1544.22,26.65z"/>
		<path class="st1" d="M1565.91,71.89c-0.06,3.81-3.91,6.89-8.47,6.79c-4.57-0.1-8.22-3.34-8.06-7.14c0.16-3.68,3.86-6.64,8.29-6.64
			C1562.24,64.91,1565.97,68.08,1565.91,71.89z"/>
		<path class="st1" d="M1678,208.5c4.57-0.02,8.34,3.12,8.31,6.93c-0.03,3.81-3.84,6.91-8.41,6.85c-4.42-0.06-8.05-3.09-8.12-6.77
			C1669.7,211.69,1673.42,208.52,1678,208.5z"/>
		<path class="st1" d="M1788.65,268.44c0.16-3.83,4.06-6.82,8.67-6.64c4.59,0.17,8.13,3.46,7.87,7.3c-0.25,3.7-4.01,6.58-8.48,6.49
			C1792.12,275.5,1788.49,272.29,1788.65,268.44z"/>
		<path class="st1" d="M1909.8,284.38c-0.01,3.85-3.77,6.93-8.39,6.88c-4.61-0.05-8.27-3.22-8.16-7.07c0.11-3.72,3.74-6.69,8.2-6.72
			C1906.06,277.44,1909.81,280.54,1909.8,284.38z"/>
		<path class="st1" d="M1640.36,184.73c4.37-0.03,8.16,3.05,8.24,6.71c0.09,3.75-3.83,7.02-8.33,6.95
			c-4.39-0.07-8.08-3.22-8.06-6.86C1632.25,187.87,1635.97,184.76,1640.36,184.73z"/>
		<path class="st1" d="M1776.03,258.7c4.42,0.08,8.09,3.24,8.05,6.91c-0.05,3.81-4.04,6.96-8.58,6.78
			c-4.43-0.18-8.02-3.41-7.86-7.07C1767.8,261.66,1771.64,258.62,1776.03,258.7z"/>
		<path class="st1" d="M1580.26,129.86c0.17-3.8,4.19-6.85,8.73-6.61c4.42,0.23,7.92,3.44,7.76,7.11c-0.17,3.81-4.19,6.85-8.73,6.61
			C1583.59,136.74,1580.09,133.53,1580.26,129.86z"/>
		<path class="st1" d="M1716.33,246.09c-4.57-0.04-8.32-3.3-8.16-7.09c0.15-3.69,3.91-6.68,8.32-6.64c4.57,0.04,8.32,3.3,8.16,7.09
			C1724.5,243.13,1720.75,246.12,1716.33,246.09z"/>
		<path class="st1" d="M1563,109.43c-0.01-3.65,3.69-6.78,8.08-6.84c4.5-0.06,8.41,3.22,8.3,6.97c-0.11,3.65-3.91,6.72-8.27,6.68
			C1566.72,116.2,1563.01,113.08,1563,109.43z"/>
		<path class="st1" d="M1922,280.69c-4.3,0.27-7.75,3.33-7.65,6.97c0.1,3.52,3.49,6.41,7.65,6.67V280.69z"/>
		<path class="st1" d="M1631.35,171.6c-0.07,3.81-4,6.91-8.56,6.76c-4.42-0.15-8-3.29-7.93-6.97c0.07-3.81,4-6.91,8.56-6.76
			C1627.85,164.78,1631.42,167.92,1631.35,171.6z"/>
		<path class="st1" d="M1754.79,255.67c4.35,0,8.16,3.21,8.1,6.83c-0.06,3.64-3.96,6.77-8.29,6.67c-4.23-0.1-7.85-3.15-7.91-6.67
			C1746.63,258.88,1750.43,255.67,1754.79,255.67z"/>
		<path class="st1" d="M1695.36,242.79c-4.4,0.01-8.18-3.21-8.07-6.86c0.11-3.56,3.79-6.56,8.04-6.57c4.4-0.01,8.18,3.21,8.07,6.86
			C1703.29,239.79,1699.61,242.79,1695.36,242.79z"/>
		<path class="st1" d="M1540.37,57.81c-4.4,0.02-8.19-3.19-8.08-6.84c0.1-3.55,3.77-6.56,8.03-6.58c4.4-0.02,8.19,3.19,8.08,6.84
			C1548.29,54.78,1544.62,57.79,1540.37,57.81z"/>
		<path class="st1" d="M1561.89,88.85c-0.1,3.67-4,6.72-8.35,6.54c-4.27-0.18-7.76-3.27-7.66-6.8c0.1-3.67,4-6.72,8.35-6.54
			C1558.5,82.23,1561.99,85.33,1561.89,88.85z"/>
		<path class="st1" d="M1664.98,212.26c0,3.66-3.83,6.77-8.2,6.67c-4.26-0.1-7.82-3.14-7.81-6.68c0-3.66,3.83-6.77,8.2-6.67
			C1661.42,205.68,1664.98,208.72,1664.98,212.26z"/>
		<path class="st1" d="M1741.61,259.21c0.05,3.62-3.44,6.61-7.8,6.65c-4.35,0.04-7.93-2.87-7.98-6.5c-0.05-3.62,3.44-6.61,7.8-6.65
			C1737.98,252.66,1741.56,255.58,1741.61,259.21z"/>
		<path class="st1" d="M1627.07,188.35c0.05,3.61-3.15,6.41-7.44,6.52c-4.48,0.12-7.96-2.65-8.01-6.36
			c-0.05-3.74,3.33-6.56,7.82-6.52C1623.75,182.02,1627.03,184.75,1627.07,188.35z"/>
		<path class="st1" d="M1575.12,127.05c-0.05,3.7-3.5,6.44-7.97,6.33c-4.28-0.11-7.45-2.88-7.4-6.49c0.05-3.7,3.5-6.44,7.97-6.33
			C1572,120.67,1575.16,123.45,1575.12,127.05z"/>
		<path class="st1" d="M1530.65,30.47c-0.04,3.58-3.3,6.28-7.61,6.28c-4.46,0-7.76-2.84-7.63-6.57c0.12-3.56,3.48-6.19,7.8-6.13
			C1527.49,24.12,1530.69,26.88,1530.65,30.47z"/>
		<path class="st1" d="M1602.07,161.88c4.43,0.01,7.8,2.88,7.74,6.58c-0.06,3.68-3.55,6.46-7.98,6.37
			c-4.26-0.09-7.52-2.85-7.56-6.42C1594.24,164.71,1597.63,161.87,1602.07,161.88z"/>
		<path class="st1" d="M1674.25,239.32c-4.32-0.01-7.59-2.72-7.62-6.33c-0.03-3.74,3.37-6.52,7.87-6.43
			c4.31,0.08,7.49,2.86,7.43,6.48C1681.87,236.65,1678.58,239.34,1674.25,239.32z"/>
		<path class="st1" d="M1526.96,19.37c-4.38,0.07-7.9-2.74-7.99-6.38c-0.09-3.65,3.29-6.59,7.66-6.66c4.38-0.07,7.9,2.74,7.99,6.38
			C1534.71,16.35,1531.33,19.29,1526.96,19.37z"/>
		<path class="st1" d="M1922,299.31c-0.93-0.35-1.96-0.55-3.06-0.56c-4.27-0.05-7.63,2.67-7.68,6.22c-0.06,3.56,3.21,6.36,7.46,6.4
			c1.19,0.01,2.29-0.21,3.29-0.58V299.31z"/>
		<path class="st1" d="M1897.63,295.55c4.35-0.05,7.68,2.6,7.78,6.19c0.11,3.75-3.22,6.59-7.71,6.56c-4.32-0.02-7.58-2.75-7.59-6.35
			C1890.09,298.34,1893.31,295.6,1897.63,295.55z"/>
		<path class="st1" d="M1876.86,305.2c-4.48,0.07-7.87-2.7-7.86-6.42c0.01-3.59,3.22-6.33,7.52-6.39c4.48-0.07,7.87,2.7,7.86,6.42
			C1884.37,302.4,1881.15,305.13,1876.86,305.2z"/>
		<path class="st1" d="M1550.23,112.61c-4.31,0.04-7.65-2.66-7.71-6.24c-0.05-3.6,3.19-6.38,7.48-6.42
			c4.31-0.04,7.65,2.66,7.71,6.24C1557.77,109.78,1554.53,112.56,1550.23,112.61z"/>
		<path class="st1" d="M1855.67,302.09c-4.33,0.02-7.66-2.66-7.77-6.24c-0.11-3.73,3.22-6.62,7.68-6.63
			c4.48-0.02,7.84,2.82,7.77,6.56C1863.28,299.36,1859.98,302.07,1855.67,302.09z"/>
		<path class="st1" d="M1842.28,292.38c0.08,3.74-3.27,6.59-7.74,6.58c-4.32-0.01-7.63-2.71-7.71-6.3
			c-0.08-3.74,3.27-6.59,7.74-6.58C1838.89,286.09,1842.2,288.79,1842.28,292.38z"/>
		<path class="st1" d="M1814.17,295.79c-4.45-0.03-7.74-2.88-7.62-6.62c0.11-3.57,3.43-6.22,7.75-6.2c4.45,0.03,7.74,2.89,7.62,6.62
			C1821.81,293.17,1818.49,295.82,1814.17,295.79z"/>
		<path class="st1" d="M1712.68,263.1c-4.31,0.01-7.61-2.72-7.62-6.31c-0.01-3.59,3.26-6.34,7.57-6.35
			c4.31-0.01,7.61,2.72,7.62,6.31C1720.26,260.34,1716.98,263.09,1712.68,263.1z"/>
		<path class="st1" d="M1800.79,286.14c0.06,3.6-3.12,6.37-7.4,6.46c-4.47,0.09-7.87-2.69-7.84-6.4c0.03-3.58,3.29-6.29,7.59-6.3
			C1797.45,279.88,1800.73,282.56,1800.79,286.14z"/>
		<path class="st1" d="M1592.5,147.81c-0.09,3.67-3.6,6.44-8.04,6.33c-4.4-0.11-7.68-3.08-7.5-6.78c0.18-3.55,3.56-6.21,7.85-6.17
			C1589.24,141.22,1592.59,144.11,1592.5,147.81z"/>
		<path class="st1" d="M1636.52,202.79c4.32-0.05,7.66,2.64,7.73,6.22c0.06,3.6-3.17,6.39-7.46,6.44c-4.31,0.05-7.66-2.64-7.73-6.22
			C1629,205.63,1632.23,202.84,1636.52,202.79z"/>
		<path class="st1" d="M1536.7,75.03c-4.35,0.05-7.68-2.6-7.78-6.19c-0.11-3.75,3.22-6.59,7.71-6.56c4.32,0.02,7.58,2.75,7.59,6.35
			C1544.24,72.24,1541.02,74.98,1536.7,75.03z"/>
		<path class="st1" d="M1758.51,280.13c-0.1,3.35-3.56,6.13-7.57,6.09c-4.16-0.04-7.61-3.09-7.4-6.54c0.21-3.34,3.76-6.06,7.75-5.93
			C1755.32,273.87,1758.62,276.78,1758.51,280.13z"/>
		<path class="st1" d="M1772.21,276.82c4.25,0.05,7.54,2.91,7.44,6.46c-0.1,3.53-3.59,6.25-7.85,6.12c-4.09-0.12-7.26-2.88-7.25-6.3
			C1764.56,279.55,1767.95,276.78,1772.21,276.82z"/>
		<path class="st1" d="M1540.28,86.26c-0.03,3.31-3.45,6.15-7.42,6.17c-4.11,0.02-7.65-3.01-7.5-6.42c0.14-3.31,3.66-6.09,7.61-6.02
			C1536.94,80.07,1540.31,82.95,1540.28,86.26z"/>
		<path class="st1" d="M1580.92,171.42c-3.98-0.03-7.42-2.93-7.38-6.23c0.03-3.31,3.51-6.18,7.48-6.15
			c3.98,0.03,7.41,2.93,7.38,6.23C1588.37,168.58,1584.89,171.44,1580.92,171.42z"/>
		<path class="st1" d="M1526.73,47.92c0.03,3.31-3.34,6.19-7.32,6.26c-4.11,0.07-7.69-2.91-7.61-6.33c0.08-3.32,3.53-6.13,7.5-6.11
			C1523.28,41.76,1526.7,44.61,1526.73,47.92z"/>
		<path class="st1" d="M1691.41,247.42c3.95-0.08,7.48,2.68,7.63,6c0.16,3.41-3.37,6.45-7.48,6.44c-3.97-0.01-7.4-2.84-7.45-6.15
			C1684.07,250.4,1687.43,247.51,1691.41,247.42z"/>
		<path class="st1" d="M1653.95,223.59c3.97,0,7.41,2.82,7.47,6.14c0.06,3.43-3.54,6.39-7.64,6.3c-3.98-0.09-7.33-2.99-7.28-6.29
			C1646.55,226.43,1649.99,223.6,1653.95,223.59z"/>
		<path class="st1" d="M1512.99,9.83c-0.09,3.24-3.44,5.96-7.31,5.94c-4.03-0.03-7.42-3-7.21-6.33c0.21-3.26,3.64-5.9,7.49-5.78
			C1509.84,3.78,1513.08,6.62,1512.99,9.83z"/>
		<path class="st1" d="M1598.57,179.12c3.99,0.15,7.34,3.21,7.1,6.48c-0.25,3.34-3.94,6.08-7.87,5.83
			c-3.87-0.25-7.04-3.14-6.92-6.31C1591,181.8,1594.63,178.97,1598.57,179.12z"/>
		<path class="st1" d="M1615.54,199.93c3.87-0.02,7.22,2.7,7.31,5.94c0.09,3.33-3.41,6.25-7.41,6.17c-3.89-0.07-7.15-2.87-7.12-6.1
			C1608.35,202.7,1611.65,199.95,1615.54,199.93z"/>
		<path class="st1" d="M1546.52,117.78c3.89,0.08,7.15,2.88,7.11,6.11c-0.04,3.36-3.62,6.18-7.61,6c-3.91-0.18-7.08-3.04-6.92-6.26
			C1539.25,120.39,1542.66,117.7,1546.52,117.78z"/>
		<path class="st1" d="M1563.64,138.36c3.97-0.01,7.47,2.92,7.42,6.23c-0.05,3.32-3.61,6.19-7.57,6.11
			c-3.85-0.09-7.16-2.87-7.23-6.07C1556.19,141.32,1559.67,138.38,1563.64,138.36z"/>
		<path class="st1" d="M1737.28,276.75c0.07,3.3-3.44,6.23-7.4,6.19c-3.84-0.04-7.17-2.81-7.24-6.01c-0.07-3.3,3.44-6.23,7.4-6.19
			C1733.88,270.79,1737.21,273.55,1737.28,276.75z"/>
		<path class="st1" d="M1677.58,250.4c0.07,3.36-2.99,5.98-7.02,5.99c-4.04,0.02-7.13-2.57-7.1-5.93c0.03-3.24,2.96-5.74,6.84-5.84
			C1674.33,244.52,1677.51,247.04,1677.58,250.4z"/>
		<path class="st1" d="M1900.96,319.51c-0.01,3.37-3.12,5.87-7.18,5.78c-3.88-0.08-6.76-2.58-6.75-5.83
			c0.01-3.37,3.12-5.87,7.18-5.78C1898.08,313.76,1900.97,316.26,1900.96,319.51z"/>
		<path class="st1" d="M1632.81,220.83c3.92-0.04,6.96,2.37,7.1,5.61c0.14,3.39-2.87,6.03-6.93,6.07c-4.07,0.04-7.15-2.54-7.1-5.93
			C1625.93,223.33,1628.9,220.87,1632.81,220.83z"/>
		<path class="st1" d="M1789.42,309.57c-3.92,0.01-6.88-2.42-6.93-5.68c-0.05-3.39,3.02-5.93,7.09-5.86
			c3.89,0.07,6.78,2.57,6.75,5.83C1796.28,307.13,1793.33,309.57,1789.42,309.57z"/>
		<path class="st1" d="M1817.48,306.92c0.01,3.39-3.1,5.93-7.17,5.86c-3.9-0.07-6.84-2.56-6.85-5.82c-0.01-3.39,3.1-5.93,7.17-5.86
			C1814.54,301.17,1817.47,303.66,1817.48,306.92z"/>
		<path class="st1" d="M1529.21,108.95c-4.06,0.07-7.14-2.46-7.13-5.83c0.01-3.25,2.92-5.72,6.81-5.78
			c4.06-0.07,7.14,2.46,7.13,5.83C1536,106.42,1533.1,108.88,1529.21,108.95z"/>
		<path class="st1" d="M1508.93,27.4c-0.08,3.35-3.25,5.81-7.32,5.66c-3.86-0.14-6.69-2.68-6.61-5.94c0.08-3.35,3.25-5.81,7.32-5.66
			C1506.18,21.6,1509.01,24.14,1508.93,27.4z"/>
		<path class="st1" d="M1830.77,315.96c-4.03-0.01-7.11-2.61-7.05-5.97c0.06-3.36,3.22-5.88,7.26-5.8c3.88,0.08,6.82,2.58,6.86,5.82
			C1837.89,313.37,1834.81,315.97,1830.77,315.96z"/>
		<path class="st1" d="M1715.86,273.76c-0.03,3.37-3.15,5.85-7.22,5.75c-3.87-0.1-6.75-2.6-6.71-5.86c0.03-3.37,3.15-5.85,7.22-5.75
			C1713.01,268,1715.89,270.51,1715.86,273.76z"/>
		<path class="st1" d="M1851.83,319.1c-4.03-0.01-7.1-2.62-7.04-5.98c0.06-3.36,3.24-5.88,7.28-5.79c3.88,0.09,6.81,2.59,6.85,5.83
			C1858.96,316.52,1855.87,319.11,1851.83,319.1z"/>
		<path class="st1" d="M1515.38,59.63c4.04-0.06,7.17,2.49,7.19,5.85c0.02,3.36-3.08,5.94-7.12,5.92c-3.89-0.02-6.89-2.47-7.01-5.7
			C1508.33,62.34,1511.35,59.69,1515.38,59.63z"/>
		<path class="st1" d="M1872.95,322.19c-4.06,0.01-7.12-2.58-7.04-5.98c0.08-3.25,3.07-5.7,6.98-5.71c4.06-0.01,7.12,2.58,7.04,5.98
			C1879.86,319.74,1876.87,322.18,1872.95,322.19z"/>
		<path class="st1" d="M1921.95,321.9c0.05,3.27-2.87,5.79-6.77,5.83c-3.93,0.04-6.94-2.39-6.99-5.64
			c-0.05-3.27,2.87-5.78,6.77-5.83C1918.88,316.21,1921.89,318.64,1921.95,321.9z"/>
		<path class="st1" d="M1549.37,141.3c0.06,3.04-2.84,5.61-6.48,5.74c-3.8,0.13-7.01-2.39-7.07-5.56c-0.06-3.17,3.05-5.77,6.86-5.74
			C1546.33,135.78,1549.32,138.26,1549.37,141.3z"/>
		<path class="st1" d="M1584.01,182.78c0,3.19-3.06,5.7-6.89,5.66c-3.81-0.04-6.8-2.64-6.7-5.82c0.09-3.05,3.04-5.47,6.71-5.51
			C1580.95,177.08,1584.01,179.6,1584.01,182.78z"/>
		<path class="st1" d="M1656.97,247.32c0.03,3.05-2.89,5.59-6.53,5.7c-3.8,0.11-6.99-2.43-7.02-5.6c-0.03-3.17,3.1-5.75,6.9-5.7
			C1653.98,241.78,1656.94,244.27,1656.97,247.32z"/>
		<path class="st1" d="M1747.3,291.91c3.65,0.02,6.69,2.54,6.72,5.58c0.03,3.16-3.19,5.78-6.98,5.68c-3.65-0.1-6.6-2.7-6.53-5.74
			C1740.58,294.39,1743.66,291.89,1747.3,291.91z"/>
		<path class="st1" d="M1768.5,294.98c3.85,0.07,6.78,2.67,6.65,5.91c-0.13,3.2-3.3,5.61-7.18,5.46c-3.69-0.14-6.5-2.64-6.47-5.75
			C1761.55,297.39,1764.63,294.91,1768.5,294.98z"/>
		<path class="st1" d="M1566.7,162.02c0.04,3.19-2.98,5.74-6.81,5.73c-3.82,0-6.84-2.56-6.79-5.75c0.05-3.06,2.96-5.51,6.62-5.58
			C1563.55,156.35,1566.66,158.84,1566.7,162.02z"/>
		<path class="st1" d="M1518.52,83.2c-0.08,3.17-3.31,5.67-7.11,5.52c-3.64-0.14-6.52-2.73-6.44-5.77c0.08-3.17,3.31-5.67,7.11-5.52
			C1515.72,77.58,1518.6,80.16,1518.52,83.2z"/>
		<path class="st1" d="M1498.5,39.2c3.64,0.13,6.57,2.77,6.46,5.8c-0.11,3.16-3.46,5.68-7.24,5.45c-3.64-0.22-6.48-2.92-6.27-5.94
			C1491.67,41.47,1494.86,39.06,1498.5,39.2z"/>
		<path class="st1" d="M1594.48,208.49c-3.81-0.02-6.86-2.66-6.74-5.84c0.12-3.04,3.16-5.48,6.82-5.46
			c3.81,0.02,6.86,2.66,6.74,5.84C1601.18,206.07,1598.13,208.51,1594.48,208.49z"/>
		<path class="st1" d="M1694.58,270.82c-0.16,3.03-3.32,5.48-6.95,5.38c-3.79-0.1-6.82-2.88-6.54-6.03c0.27-3.03,3.5-5.4,7.13-5.22
			C1691.85,265.13,1694.74,267.79,1694.58,270.82z"/>
		<path class="st1" d="M1531.96,120.76c-0.05,3-3.26,5.58-6.84,5.49c-3.6-0.09-6.66-2.81-6.49-5.78c0.16-2.89,3.2-5.33,6.65-5.33
			C1528.87,115.14,1532.01,117.77,1531.96,120.76z"/>
		<path class="st1" d="M1611.94,229.1c-3.59,0.06-6.77-2.54-6.78-5.54c-0.01-3,3.15-5.61,6.74-5.57c3.45,0.04,6.47,2.5,6.59,5.38
			C1618.62,226.35,1615.54,229.04,1611.94,229.1z"/>
		<path class="st1" d="M1732.78,294.46c-0.04,2.97-3.31,5.57-6.84,5.43c-3.43-0.13-6.37-2.71-6.33-5.54
			c0.04-2.97,3.31-5.57,6.84-5.43C1729.88,289.04,1732.82,291.62,1732.78,294.46z"/>
		<path class="st1" d="M1487.19,1.6h-5.05c-2.23,0.83-3.91,2.68-4.01,4.79c-0.14,2.97,2.99,5.66,6.58,5.63
			c3.45-0.03,6.45-2.53,6.47-5.41C1491.2,4.44,1489.51,2.46,1487.19,1.6z"/>
		<path class="st1" d="M1494.26,57.06c3.55-0.08,6.52,2.29,6.57,5.26c0.05,2.97-2.84,5.4-6.4,5.39c-3.42,0-6.23-2.26-6.38-5.1
			C1487.9,59.65,1490.71,57.14,1494.26,57.06z"/>
		<path class="st1" d="M1673.89,268.12c-0.04,2.97-2.99,5.35-6.55,5.27c-3.56-0.08-6.37-2.58-6.23-5.54
			c0.14-2.84,2.95-5.1,6.36-5.11C1671.04,262.73,1673.93,265.15,1673.89,268.12z"/>
		<path class="st1" d="M1622.82,244.34c-0.06-2.88,2.56-5.23,6-5.36c3.62-0.14,6.55,2.15,6.62,5.15c0.07,3.01-2.76,5.39-6.37,5.36
			C1625.59,249.46,1622.89,247.23,1622.82,244.34z"/>
		<path class="st1" d="M1705.13,286.1c3.5,0,6.15,2.18,6.19,5.09c0.05,3.05-2.73,5.32-6.39,5.24c-3.48-0.08-6.05-2.32-6.01-5.25
			C1698.98,288.27,1701.63,286.1,1705.13,286.1z"/>
		<path class="st1" d="M1579.6,199.81c-0.06,2.92-2.74,5.08-6.27,5.03c-3.51-0.05-6.09-2.29-6.03-5.23
			c0.06-2.93,2.74-5.08,6.27-5.03C1577.08,194.63,1579.66,196.87,1579.6,199.81z"/>
		<path class="st1" d="M1538.67,153.82c3.53-0.07,6.24,2.08,6.31,4.99c0.08,2.94-2.49,5.2-5.99,5.26c-3.53,0.07-6.24-2.08-6.31-4.99
			C1532.6,156.15,1535.17,153.89,1538.67,153.82z"/>
		<path class="st1" d="M1514.29,99.99c0.01,3.01-2.87,5.35-6.48,5.27c-3.46-0.07-6.13-2.35-6.13-5.24
			c-0.01-3.01,2.87-5.34,6.48-5.27C1511.61,94.82,1514.28,97.11,1514.29,99.99z"/>
		<path class="st1" d="M1480.88,29.26c-3.52-0.01-6.14-2.21-6.13-5.14c0.01-2.93,2.65-5.12,6.17-5.11c3.52,0.01,6.14,2.21,6.13,5.14
			C1487.04,27.08,1484.4,29.27,1480.88,29.26z"/>
		<path class="st1" d="M1812.91,324.57c-0.04,2.91-2.69,5.09-6.18,5.1c-3.64,0.01-6.35-2.34-6.21-5.39c0.13-2.9,2.86-5.01,6.37-4.94
			C1810.37,319.4,1812.95,321.64,1812.91,324.57z"/>
		<path class="st1" d="M1834.02,327.78c-0.09,3-2.97,5.21-6.6,5.06c-3.44-0.14-5.97-2.44-5.89-5.34c0.09-3,2.97-5.21,6.6-5.06
			C1831.58,322.58,1834.1,324.87,1834.02,327.78z"/>
		<path class="st1" d="M1556.12,184.81c-3.5-0.01-6.14-2.19-6.18-5.11c-0.04-3.05,2.74-5.31,6.41-5.22
			c3.48,0.08,6.05,2.34,5.99,5.26C1562.28,182.65,1559.62,184.82,1556.12,184.81z"/>
		<path class="st1" d="M1848.27,335.97c-3.63,0.07-6.42-2.2-6.41-5.22c0.01-2.89,2.61-5.12,6.07-5.19c3.63-0.07,6.42,2.2,6.41,5.22
			C1854.33,333.68,1851.72,335.9,1848.27,335.97z"/>
		<path class="st1" d="M1875.41,333.34c-0.04,3.01-2.88,5.25-6.51,5.14c-3.45-0.11-6.02-2.37-5.98-5.27
			c0.04-3.01,2.88-5.25,6.51-5.14C1872.88,328.18,1875.44,330.44,1875.41,333.34z"/>
		<path class="st1" d="M1896.38,336.28c0.08,2.94-2.49,5.2-5.99,5.26c-3.53,0.07-6.24-2.08-6.31-4.99c-0.08-2.94,2.49-5.2,5.99-5.26
			C1893.6,331.22,1896.31,333.36,1896.38,336.28z"/>
		<path class="st1" d="M1496.68,79.84c0.07,2.7-2.55,5-5.79,5.1c-3.38,0.1-6.25-2.24-6.21-5.06c0.04-2.71,2.73-4.93,5.98-4.94
			C1493.9,74.93,1496.61,77.14,1496.68,79.84z"/>
		<path class="st1" d="M1678.09,287.89c0.17-2.68,3.07-4.87,6.26-4.73c3.21,0.14,5.85,2.56,5.68,5.22
			c-0.17,2.68-3.07,4.87-6.26,4.73C1680.55,292.96,1677.92,290.55,1678.09,287.89z"/>
		<path class="st1" d="M1770.6,318.11c0.08,2.76-2.49,5.04-5.79,5.14c-3.45,0.11-6.29-2.18-6.26-5.06c0.02-2.76,2.66-4.96,5.97-4.98
			C1767.83,313.18,1770.52,315.35,1770.6,318.11z"/>
		<path class="st1" d="M1477.31,36.71c3.22,0.09,5.9,2.45,5.79,5.12c-0.1,2.68-2.94,4.91-6.15,4.83c-3.22-0.09-5.9-2.45-5.79-5.12
			C1471.27,38.86,1474.11,36.63,1477.31,36.71z"/>
		<path class="st1" d="M1590.57,215.34c3.49-0.08,6.22,2.1,6.26,4.99c0.05,2.91-2.6,5.14-6.09,5.14c-3.34,0-5.94-2.07-6.07-4.84
			C1584.54,217.73,1587.11,215.41,1590.57,215.34z"/>
		<path class="st1" d="M1785.8,326.46c-3.54,0.06-6.24-2.11-6.27-5.04c-0.03-2.94,2.62-5.16,6.15-5.15c3.37,0.01,5.96,2.1,6.08,4.89
			C1791.88,324.1,1789.3,326.39,1785.8,326.46z"/>
		<path class="st1" d="M1521.5,133.22c3.48-0.01,6.17,2.27,6.08,5.17c-0.08,2.77-2.69,4.9-6.02,4.91c-3.48,0.01-6.17-2.27-6.08-5.17
			C1515.56,135.36,1518.17,133.23,1521.5,133.22z"/>
		<path class="st1" d="M1646.58,259.91c3.31,0.06,5.91,2.31,5.88,5.06c-0.03,2.88-2.91,5.13-6.36,4.98
			c-3.29-0.15-5.82-2.46-5.69-5.22C1640.54,261.98,1643.27,259.84,1646.58,259.91z"/>
		<path class="st1" d="M1911.45,344.59c-3.48,0.06-6.22-2.18-6.2-5.08c0.02-2.78,2.58-4.95,5.91-5.01c3.48-0.06,6.22,2.18,6.2,5.08
			C1917.33,342.36,1914.77,344.53,1911.45,344.59z"/>
		<path class="st1" d="M1602.12,240.95c0.11-2.66,3.05-4.94,6.21-4.8c3.2,0.14,5.88,2.63,5.66,5.26c-0.21,2.55-2.99,4.68-6.02,4.64
			C1604.78,246,1602.01,243.59,1602.12,240.95z"/>
		<path class="st1" d="M1743.46,320.01c-3.19-0.02-6-2.47-5.85-5.11c0.14-2.54,2.91-4.74,5.94-4.72c3.19,0.02,6,2.47,5.85,5.11
			C1749.26,317.82,1746.49,320.03,1743.46,320.01z"/>
		<path class="st1" d="M1504.36,112.62c3.2,0.07,5.94,2.5,5.8,5.14c-0.14,2.67-3.1,4.92-6.26,4.75c-3.05-0.16-5.64-2.45-5.62-4.98
			C1498.31,114.87,1501.18,112.55,1504.36,112.62z"/>
		<path class="st1" d="M1722.47,316.66c-3.15,0.02-5.71-2.12-5.68-4.74c0.03-2.62,2.64-4.72,5.79-4.65c3,0.07,5.42,2.09,5.49,4.59
			C1728.15,314.47,1725.62,316.64,1722.47,316.66z"/>
		<path class="st1" d="M1669.29,285.08c-0.05,2.68-2.61,4.67-5.83,4.54c-3.05-0.12-5.31-2.14-5.26-4.71
			c0.05-2.68,2.61-4.67,5.83-4.54C1667.08,280.49,1669.34,282.51,1669.29,285.08z"/>
		<path class="st1" d="M1458.48,1.6c-0.29,0.58-0.44,1.21-0.43,1.9c0.04,2.68,2.57,4.68,5.8,4.57c3.06-0.11,5.33-2.11,5.29-4.68
			c-0.01-0.64-0.16-1.24-0.43-1.79H1458.48z"/>
		<path class="st1" d="M1552.48,191.95c3.22,0.05,5.6,2.17,5.45,4.86c-0.14,2.54-2.57,4.43-5.65,4.38c-3.22-0.05-5.6-2.17-5.45-4.86
			C1546.98,193.79,1549.4,191.91,1552.48,191.95z"/>
		<path class="st1" d="M1540.62,176.36c0.1,2.69-2.33,4.78-5.55,4.77c-3.08,0-5.45-1.91-5.54-4.47c-0.1-2.69,2.33-4.78,5.55-4.77
			C1538.15,171.89,1540.53,173.8,1540.62,176.36z"/>
		<path class="st1" d="M1625.28,266.36c-3.11-0.04-5.39-1.96-5.39-4.56c0-2.72,2.48-4.69,5.75-4.57c3.09,0.11,5.3,2.11,5.21,4.72
			C1630.76,264.53,1628.41,266.4,1625.28,266.36z"/>
		<path class="st1" d="M1486.83,102.07c-3.11-0.03-5.39-1.96-5.4-4.56c-0.01-2.72,2.48-4.7,5.75-4.58c3.09,0.11,5.3,2.11,5.21,4.71
			C1492.31,100.23,1489.95,102.1,1486.83,102.07z"/>
		<path class="st1" d="M1473.42,63.81c-3.12,0.02-5.46-1.86-5.53-4.45c-0.07-2.6,2.15-4.59,5.25-4.69c3.27-0.1,5.74,1.89,5.72,4.6
			C1478.83,61.88,1476.53,63.79,1473.42,63.81z"/>
		<path class="st1" d="M1517.6,151.3c3.14-0.07,5.51,1.78,5.59,4.38c0.09,2.62-2.14,4.59-5.25,4.66c-3.14,0.07-5.51-1.78-5.59-4.38
			C1512.26,153.34,1514.48,151.37,1517.6,151.3z"/>
		<path class="st1" d="M1575.11,217.39c-0.07,2.6-2.43,4.46-5.57,4.4c-3.12-0.06-5.35-2.02-5.28-4.64c0.07-2.6,2.43-4.46,5.57-4.4
			C1572.95,212.81,1575.18,214.77,1575.11,217.39z"/>
		<path class="st1" d="M1870.7,350.99c-0.1,2.53-2.62,4.42-5.67,4.26c-2.88-0.16-5.02-2.15-4.93-4.57c0.1-2.53,2.62-4.42,5.67-4.26
			C1868.65,346.58,1870.8,348.57,1870.7,350.99z"/>
		<path class="st1" d="M1829.36,344.6c-0.02,2.59-2.46,4.52-5.57,4.41c-2.94-0.1-5.13-2.02-5.11-4.49c0.02-2.59,2.46-4.52,5.57-4.41
			C1827.19,340.21,1829.38,342.14,1829.36,344.6z"/>
		<path class="st1" d="M1844.27,343.25c2.96-0.03,5.28,1.8,5.4,4.24c0.13,2.59-2.18,4.63-5.28,4.66c-3.11,0.03-5.47-1.97-5.4-4.56
			C1839.05,345.14,1841.31,343.28,1844.27,343.25z"/>
		<path class="st1" d="M1706.67,308.85c-0.02,2.54-2.47,4.49-5.53,4.39c-2.89-0.09-5.1-2.03-5.08-4.45
			c0.02-2.54,2.47-4.49,5.53-4.39C1704.48,304.5,1706.69,306.44,1706.67,308.85z"/>
		<path class="st1" d="M1891.71,353.87c0.07,2.35-2.29,4.42-5.12,4.47c-2.83,0.06-5.3-1.91-5.37-4.26
			c-0.07-2.36,2.29-4.42,5.12-4.47C1889.17,349.54,1891.64,351.51,1891.71,353.87z"/>
		<path class="st1" d="M1808.22,342.07c-0.01,2.39-2.33,4.35-5.2,4.38c-3.01,0.03-5.46-2.06-5.35-4.57
			c0.11-2.38,2.52-4.27,5.39-4.22C1805.92,337.71,1808.23,339.68,1808.22,342.07z"/>
		<path class="st1" d="M1465.1,20.91c0.06,2.39-2.21,4.4-5.07,4.49c-3.01,0.09-5.52-1.95-5.48-4.46c0.04-2.39,2.39-4.32,5.26-4.33
			C1462.68,16.59,1465.04,18.52,1465.1,20.91z"/>
		<path class="st1" d="M1586.93,233.57c2.86-0.03,5.25,1.88,5.34,4.26c0.09,2.51-2.39,4.58-5.4,4.52c-2.86-0.05-5.17-2.03-5.15-4.42
			C1581.74,235.55,1584.06,233.6,1586.93,233.57z"/>
		<path class="st1" d="M1505.73,135.08c0.03,2.39-2.26,4.38-5.12,4.44c-3.01,0.07-5.49-1.99-5.42-4.5c0.07-2.39,2.44-4.3,5.31-4.29
			C1503.37,130.75,1505.7,132.69,1505.73,135.08z"/>
		<path class="st1" d="M1781.81,334.58c2.82-0.03,5.29,2.01,5.28,4.36c-0.01,2.35-2.52,4.47-5.32,4.3
			c-3.03-0.18-4.81-1.66-5.06-4.18C1776.47,336.73,1778.99,334.62,1781.81,334.58z"/>
		<path class="st1" d="M1604.39,254.44c2.7,0.05,5.02,2.06,4.96,4.29c-0.06,2.25-2.47,4.18-5.15,4.14c-2.7-0.05-5.02-2.06-4.96-4.29
			C1599.3,256.33,1601.71,254.4,1604.39,254.44z"/>
		<path class="st1" d="M1469.54,72.54c2.66-0.03,5.09,1.9,5.19,4.13c0.1,2.33-2.44,4.46-5.23,4.4c-2.68-0.06-5.01-2.06-5-4.28
			C1464.51,74.56,1466.86,72.58,1469.54,72.54z"/>
		<path class="st1" d="M1912.65,357.11c0,2.23-2.34,4.22-5.02,4.27c-2.8,0.05-5.33-2.09-5.21-4.42c0.11-2.23,2.55-4.15,5.21-4.11
			C1910.31,352.89,1912.65,354.88,1912.65,357.11z"/>
		<path class="st1" d="M1760.9,340c-2.68,0.05-5.09-1.89-5.15-4.14c-0.06-2.24,2.27-4.25,4.97-4.29c2.68-0.05,5.09,1.89,5.15,4.14
			C1765.92,337.95,1763.6,339.96,1760.9,340z"/>
		<path class="st1" d="M1647.84,282.01c-0.11,2.34-2.78,4.34-5.54,4.15c-2.66-0.18-4.91-2.26-4.8-4.45
			c0.11-2.34,2.78-4.34,5.54-4.15C1645.7,277.74,1647.95,279.82,1647.84,282.01z"/>
		<path class="st1" d="M1456.25,42.63c-2.91,0.02-5.24-1.89-5.05-4.19c0.21-2.43,1.9-3.81,4.82-3.94c2.77-0.11,5.1,1.87,4.91,4.17
			C1460.73,41.11,1459.01,42.4,1456.25,42.63z"/>
		<path class="st1" d="M1482.97,110.28c2.7-0.09,5.11,1.82,5.17,4.08c0.05,2.26-2.28,4.32-4.99,4.21c-2.9-0.12-4.64-1.51-4.95-3.9
			C1477.9,112.43,1480.25,110.37,1482.97,110.28z"/>
		<path class="st1" d="M1680.94,309.84c-2.72-0.05-5-2.07-4.88-4.32c0.12-2.26,2.61-4.22,5.28-3.96c2.87,0.27,4.53,1.73,4.67,4.14
			C1686.13,307.96,1683.65,309.9,1680.94,309.84z"/>
		<path class="st1" d="M1531.24,190.11c2.91,0.19,4.71,1.41,4.74,3.9c0.03,2.46-1.64,3.92-4.61,3.95c-2.96,0.03-4.69-1.37-4.74-3.84
			C1526.59,191.64,1528.33,190.36,1531.24,190.11z"/>
		<path class="st1" d="M1553.36,214.19c-0.3,2.43-1.84,3.88-4.81,3.84c-2.96-0.04-4.64-1.49-4.6-3.95c0.04-2.47,1.78-3.86,4.74-3.84
			C1551.67,210.26,1553.14,211.76,1553.36,214.19z"/>
		<path class="st1" d="M1744.51,332.54c-0.32,2.59-1.85,4.04-4.83,4c-2.96-0.04-4.65-1.48-4.61-3.94c0.04-2.47,1.77-3.86,4.73-3.85
			C1742.81,328.76,1744.21,330.31,1744.51,332.54z"/>
		<path class="st1" d="M1626.2,279.16c-0.34,2.45-1.74,3.92-4.57,3.92c-2.81,0-4.48-1.38-4.5-3.71c-0.01-2.34,1.65-3.71,4.45-3.75
			C1624.45,275.58,1625.77,277.11,1626.2,279.16z"/>
		<path class="st1" d="M1518.72,173.16c-0.28,2.62-1.77,4.1-4.78,4.06c-2.98-0.04-4.62-1.5-4.55-3.97c0.06-2.32,1.7-3.66,4.49-3.72
			C1516.91,169.45,1518.32,170.98,1518.72,173.16z"/>
		<path class="st1" d="M1471.19,93.98c-0.23,2.53-1.58,4.03-4.41,4.11c-2.8,0.08-4.54-1.25-4.65-3.58c-0.11-2.33,1.5-3.76,4.3-3.88
			C1469.28,90.51,1470.66,92.01,1471.19,93.98z"/>
		<path class="st1" d="M1570.49,235.12c-0.18,1.92-1.54,3.33-4.37,3.49c-2.68,0.16-4.87-1.61-4.74-3.85
			c0.14-2.34,1.72-3.63,4.52-3.72C1568.45,230.97,1570.42,232.62,1570.49,235.12z"/>
		<path class="st1" d="M1664.55,302.51c-0.3,2.29-1.69,3.76-4.53,3.77c-2.81,0.01-4.49-1.36-4.52-3.69
			c-0.03-2.34,1.63-3.73,4.43-3.77C1662.77,298.78,1664.2,300.24,1664.55,302.51z"/>
		<path class="st1" d="M1496.33,156.51c-2.64-0.39-4.21-1.64-4.17-4c0.04-2.22,2.36-3.9,5.02-3.59c2.78,0.32,4.25,1.77,4.03,4.09
			C1500.98,155.35,1499.15,156.43,1496.33,156.51z"/>
		<path class="st1" d="M1479.17,136.09c-1.12-1.39-2.95-2.71-3.18-4.2c-0.33-2.08,1.65-3.51,4.25-3.46
			c2.59,0.05,4.51,1.53,4.07,3.61c-0.32,1.48-2.21,2.73-3.4,4.09C1480.33,136.12,1479.75,136.1,1479.17,136.09z"/>
		<path class="st1" d="M1457.61,55.84c-0.32,2.46-1.72,3.97-4.55,3.96c-2.8-0.01-4.47-1.43-4.45-3.76c0.02-2.18,1.64-3.53,4.24-3.63
			C1455.72,52.3,1457.09,53.82,1457.61,55.84z"/>
		<path class="st1" d="M1588.15,256.34c-1.67,0.93-3.25,2.45-5.04,2.65c-2.49,0.27-4.21-1.37-4.15-3.54
			c0.06-2.16,1.84-3.76,4.33-3.39c1.78,0.26,3.28,1.84,4.9,2.83C1588.18,255.37,1588.17,255.85,1588.15,256.34z"/>
		<path class="st1" d="M1723.24,329.34c-0.39,2.44-1.82,3.92-4.65,3.87c-2.8-0.06-4.44-1.51-4.35-3.84
			c0.08-2.17,1.72-3.51,4.33-3.55C1721.42,325.77,1722.78,327.28,1723.24,329.34z"/>
		<path class="st1" d="M1438.13,1.6c0.28,1.83,1.83,2.96,4.26,3.03c2.55,0.08,3.97-1.12,4.51-3.03H1438.13z"/>
		<path class="st1" d="M1824.97,363.02c-1.68,0.85-3.45,2.46-5.01,2.33c-1.41-0.12-3.42-2.04-3.67-3.35
			c-0.38-2.08,1.72-3.63,4.23-3.18c1.65,0.29,3,1.81,4.48,2.78C1825,362.07,1824.99,362.54,1824.97,363.02z"/>
		<path class="st1" d="M1698.12,321.53c2.02,2.11,3.85,3.21,4.21,4.59c0.56,2.09-1.2,3.58-3.81,3.67c-2.62,0.09-4.51-1.28-4.15-3.41
			C1694.6,324.99,1696.31,323.76,1698.12,321.53z"/>
		<path class="st1" d="M1846.1,365.96c-1.63,0.92-3.3,2.6-4.87,2.53c-1.41-0.06-3.54-1.89-3.86-3.2c-0.51-2.07,1.5-3.7,4.04-3.36
			c1.67,0.22,3.1,1.68,4.64,2.58C1846.06,365,1846.08,365.48,1846.1,365.96z"/>
		<path class="st1" d="M1449.97,69.96c1.05,1.17,2.69,2.23,3,3.52c0.49,2.02-1.23,3.63-3.66,3.23c-1.46-0.24-3.39-1.83-3.59-3
			c-0.19-1.1,1.59-2.45,2.5-3.69C1448.8,70,1449.39,69.98,1449.97,69.96z"/>
		<path class="st1" d="M1639.83,303.15c-3.4-0.65-5.2-1.82-4.61-3.83c0.36-1.22,2.23-2.73,3.71-2.98c2.43-0.42,4.17,1.15,3.73,3.19
			C1642.37,300.84,1640.81,301.95,1639.83,303.15z"/>
		<path class="st1" d="M1467.28,111.96c-1.43,0.84-2.75,2.17-4.3,2.4c-2.45,0.36-4.32-1.13-3.78-3.13c0.33-1.21,2.29-2.78,3.69-2.92
			c1.33-0.13,2.9,1.39,4.37,2.18C1467.26,110.98,1467.27,111.47,1467.28,111.96z"/>
		<path class="st1" d="M1779.41,352.19c0.85,1.36,2.54,2.83,2.31,4.04c-0.21,1.09-2.43,2.55-3.93,2.7
			c-2.48,0.25-4.01-1.48-3.39-3.46c0.41-1.28,2.1-2.28,3.21-3.4C1778.21,352.11,1778.81,352.15,1779.41,352.19z"/>
		<path class="st1" d="M1798.4,362.85c-1.07-1.26-2.76-2.43-3.08-3.82c-0.46-2,1.26-3.32,3.78-3.36c2.51-0.04,4.31,1.2,3.95,3.23
			c-0.25,1.4-1.87,2.62-2.87,3.93C1799.59,362.83,1798.99,362.84,1798.4,362.85z"/>
		<path class="st1" d="M1862.5,364.54c1.05,1.28,2.71,2.47,3.01,3.85c0.43,2.02-1.32,3.3-3.84,3.31c-2.52,0.01-4.29-1.25-3.89-3.27
			c0.27-1.39,1.91-2.6,2.94-3.89C1861.31,364.55,1861.9,364.54,1862.5,364.54z"/>
		<path class="st1" d="M1881.41,375.19c-0.85-1.36-2.54-2.83-2.31-4.04c0.21-1.09,2.43-2.55,3.93-2.7c2.48-0.25,4.01,1.48,3.39,3.46
			c-0.41,1.28-2.1,2.28-3.21,3.4C1882.61,375.27,1882.01,375.23,1881.41,375.19z"/>
		<path class="st1" d="M1439.43,13.98c1.11,1.24,2.84,2.38,3.19,3.76c0.51,1.99-1.17,3.35-3.69,3.43c-2.5,0.08-4.35-1.11-4.04-3.15
			c0.21-1.4,1.8-2.66,2.77-3.98C1438.25,14.02,1438.84,14,1439.43,13.98z"/>
		<path class="st1" d="M1601.58,272.61c0.91,1.24,2.7,2.61,2.48,3.7c-0.23,1.16-2.41,2.86-3.67,2.82c-1.26-0.04-3.26-1.89-3.38-3.06
			c-0.11-1.1,1.8-2.34,2.83-3.52C1600.42,272.57,1601,272.59,1601.58,272.61z"/>
		<path class="st1" d="M1526.76,214.65c-0.99-1.2-2.88-2.47-2.73-3.57c0.15-1.17,2.2-2.97,3.46-3c1.26-0.02,3.39,1.72,3.6,2.88
			c0.19,1.09-1.63,2.43-2.56,3.65C1527.93,214.63,1527.34,214.64,1526.76,214.65z"/>
		<path class="st1" d="M1514.61,191.67c-1.46,0.8-3.03,2.34-4.34,2.2c-1.39-0.15-2.54-1.89-3.8-2.94c1.26-1.05,2.41-2.79,3.8-2.94
			c1.31-0.14,2.88,1.4,4.33,2.21C1514.61,190.69,1514.61,191.18,1514.61,191.67z"/>
		<path class="st1" d="M1904.82,371.12c0.89,1.26,2.69,2.66,2.44,3.73c-0.27,1.14-2.4,2.58-3.86,2.7c-0.99,0.08-3.11-1.89-3.11-2.95
			c0-1.19,1.82-2.37,2.84-3.56C1903.69,371.07,1904.26,371.09,1904.82,371.12z"/>
		<path class="st1" d="M1757.3,357.69c-1.83-1.92-3.86-3.15-3.68-4.09c0.23-1.22,2.22-2.22,3.45-3.31c1.22,1,3.25,1.91,3.42,3.03
			C1760.66,354.37,1758.89,355.64,1757.3,357.69z"/>
		<path class="st1" d="M1550.06,231.48c-2.3,1.52-3.78,3.22-4.91,3.07c-1.47-0.19-2.66-1.85-3.98-2.87c1.2-1.02,2.29-2.71,3.63-2.85
			C1546.08,228.69,1547.61,230.16,1550.06,231.48z"/>
		<path class="st1" d="M1498.91,170.28c-2.4,1.41-3.99,3.02-5.11,2.82c-1.46-0.26-2.54-1.96-3.79-3.05c1.27-0.96,2.47-2.6,3.82-2.68
			C1495.11,167.29,1496.54,168.84,1498.91,170.28z"/>
		<path class="st1" d="M1436,39.76c-1.83-1.92-3.86-3.15-3.68-4.09c0.23-1.22,2.22-2.22,3.45-3.31c1.22,1,3.25,1.91,3.42,3.03
			C1439.35,36.45,1437.58,37.72,1436,39.76z"/>
		<path class="st1" d="M1682.51,323.34c-2.42,1.38-4.03,2.98-5.15,2.77c-1.45-0.28-2.52-1.99-3.75-3.08
			c1.28-0.95,2.51-2.57,3.86-2.65C1678.75,320.31,1680.16,321.87,1682.51,323.34z"/>
		<path class="st1" d="M1481.15,149.76c-2.25,1.21-3.8,2.66-4.8,2.43c-1.33-0.3-2.24-1.9-3.34-2.95c1.21-0.84,2.41-2.31,3.65-2.34
			C1477.85,146.88,1479.08,148.36,1481.15,149.76z"/>
		<path class="st1" d="M1740.82,350.2c-2.39,1.31-3.78,2.67-4.89,2.53c-1.2-0.15-2.76-1.64-2.97-2.7c-0.13-0.69,1.84-2.32,2.92-2.35
			C1737.12,347.64,1738.43,348.9,1740.82,350.2z"/>
		<path class="st1" d="M1567,252.29c-2.35,1.35-3.7,2.74-4.83,2.62c-1.2-0.13-2.8-1.58-3.03-2.64c-0.15-0.69,1.78-2.36,2.86-2.41
			C1563.24,249.8,1564.58,251.03,1567,252.29z"/>
		<path class="st1" d="M1622.31,296.42c-2.14,1.15-3.53,2.46-4.44,2.26c-1.23-0.27-2.09-1.71-3.1-2.65c1.09-0.77,2.16-2.1,3.29-2.15
			C1619.13,293.83,1620.29,295.14,1622.31,296.42z"/>
		<path class="st1" d="M1656.08,323.7c-1.32-1.76-2.7-2.8-2.63-3.76c0.06-0.81,2.07-2.29,2.75-2.13c1.18,0.28,2.59,1.52,2.79,2.52
			C1659.14,321.08,1657.56,322.08,1656.08,323.7z"/>
		<path class="st1" d="M1458.94,125.36c1.43,1.61,2.92,2.56,2.84,3.4c-0.09,0.89-1.65,2.3-2.61,2.33c-0.96,0.03-2.64-1.3-2.8-2.18
			C1456.22,128.08,1457.64,127.05,1458.94,125.36z"/>
		<path class="st1" d="M1432.24,49.39c1.26,1.8,2.61,2.86,2.51,3.83c-0.09,0.81-2.14,2.24-2.83,2.06c-1.17-0.31-2.54-1.58-2.71-2.59
			C1429.09,51.94,1430.7,50.98,1432.24,49.39z"/>
		<path class="st1" d="M1719.1,347.19c-2.03,1.09-3.26,2.27-4.26,2.14c-1.06-0.13-1.89-1.51-2.82-2.34c1-0.78,1.94-2.1,3.01-2.17
			C1716.03,344.75,1717.17,346,1719.1,347.19z"/>
		<path class="st1" d="M1450,91.06c-2.01,1.3-3.27,2.7-4.2,2.57c-1.25-0.19-2.24-1.57-3.34-2.43c1.01-0.84,1.93-2.24,3.05-2.36
			C1446.57,88.71,1447.86,89.92,1450,91.06z"/>
		<path class="st1" d="M1579.54,276.49c-1.36-1.64-2.81-2.62-2.68-3.43c0.14-0.86,1.66-1.98,2.78-2.16c0.69-0.11,2.42,1.3,2.45,2.06
			C1582.12,273.87,1580.84,274.81,1579.54,276.49z"/>
		<path class="st1" d="M1524.27,225.74c1.23,1.25,2.49,1.97,2.46,2.66c-0.03,0.72-1.29,1.41-2.01,2.12
			c-0.84-0.6-2.21-1.12-2.38-1.83C1522.18,228.01,1523.29,227.14,1524.27,225.74z"/>
		<path class="st1" d="M1489.89,185.03c1.09,1.34,2.27,2.15,2.15,2.8c-0.12,0.7-1.38,1.56-2.31,1.73c-0.53,0.09-1.93-1.07-1.93-1.67
			C1487.8,187.15,1488.83,186.39,1489.89,185.03z"/>
		<path class="st1" d="M1697.9,343.74c-1.53,0.99-2.43,2.02-3.22,1.96c-0.84-0.06-1.96-1.05-2.21-1.81
			c-0.14-0.44,1.16-1.69,1.87-1.72C1695.25,342.12,1696.21,342.94,1697.9,343.74z"/>
		<path class="st1" d="M1418.28,17.49c-1-1.39-2.12-2.26-1.95-2.9c0.18-0.69,1.5-1.49,2.44-1.62c0.52-0.07,1.85,1.17,1.81,1.77
			C1420.52,15.48,1419.43,16.18,1418.28,17.49z"/>
		<path class="st1" d="M1507.03,210.66c-1.02-1.24-2.28-2.14-2.1-2.73c0.25-0.83,1.58-1.42,2.45-2.12c0.77,0.77,2.01,1.49,2.15,2.34
			C1509.62,208.75,1508.23,209.52,1507.03,210.66z"/>
		<path class="st1" d="M1860.92,386.16c-1.42,0.74-2.48,1.68-3.07,1.51c-0.89-0.26-1.45-1.3-2.15-2.01
			c0.81-0.51,1.63-1.43,2.43-1.42C1858.9,384.25,1859.65,385.23,1860.92,386.16z"/>
		<path class="st1" d="M1816.38,377.14c1.05,1.1,2.3,1.88,2.16,2.38c-0.22,0.76-1.4,1.34-2.17,1.99c-0.69-0.62-1.86-1.19-1.94-1.86
			C1814.36,379.02,1815.43,378.29,1816.38,377.14z"/>
		<path class="st1" d="M1840.62,382.68c-1.31,0.91-2.22,1.96-2.82,1.85c-0.92-0.17-1.63-1.14-2.43-1.77
			c0.73-0.59,1.4-1.57,2.19-1.65C1838.32,381.03,1839.21,381.9,1840.62,382.68z"/>
	</g>
</g>
<ellipse class="st7" cx="84.68" cy="82.8" rx="5.8" ry="4.83"/>
<ellipse class="st7" cx="608.56" cy="639.09" rx="5.8" ry="4.83"/>
<path class="st8" d="M1811.76,781.08c0,2.67-2.59,4.83-5.8,4.83c-3.2,0-5.8-2.16-5.8-4.83s2.59-4.83,5.8-4.83
	C1809.16,776.25,1811.76,778.41,1811.76,781.08z"/>
<g class="st2">
	<g>
		<rect x="1282.69" y="57.73" class="st3" width="10.65" height="29.91"/>
		<rect x="1270.07" y="68.24" class="st3" width="35.89" height="8.87"/>
	</g>
</g>
<g class="st2">
	<g>
		<rect x="570.15" y="332.47" class="st6" width="6.9" height="19.39"/>
		<rect x="561.97" y="339.29" class="st6" width="23.27" height="5.75"/>
	</g>
</g>
<g class="st2">
	<rect x="1354.23" y="919.5" class="st3" width="6.9" height="19.39"/>
	
		<rect x="1354.81" y="917.57" transform="matrix(-1.836970e-16 1 -1 -1.836970e-16 2286.8828 -428.4829)" class="st3" width="5.75" height="23.27"/>
</g>
<g class="st2">
	<rect x="285.49" y="914.55" class="st3" width="12.47" height="35.04"/>
	
		<rect x="286.52" y="911.05" transform="matrix(-1.836970e-16 1 -1 -1.836970e-16 1223.799 640.3535)" class="st3" width="10.4" height="42.05"/>
</g>
<ellipse class="st9" cx="297.96" cy="688.31" rx="180.81" ry="150.68"/>
<rect x="13.2" y="-0.78" class="st10" width="1891.25" height="1050.74"/>
</svg>
