<?xml version="1.0" encoding="utf-8"?>
<!-- Generator: Adobe Illustrator 25.3.1, SVG Export Plug-In . SVG Version: 6.00 Build 0)  -->
<svg version="1.1" id="Layer_1" xmlns="http://www.w3.org/2000/svg" xmlns:xlink="http://www.w3.org/1999/xlink" x="0px" y="0px"
	 viewBox="0 0 1920 1080" style="enable-background:new 0 0 1920 1080;" xml:space="preserve">
<style type="text/css">
	.st0{fill:#FD2155;}
	.st1{fill:#FFFFFF;}
	.st2{fill:#05FDD8;}
</style>
<circle class="st0" cx="960" cy="540" r="531"/>
<path class="st1" d="M960,540l138.18,138.18c-35.36,35.36-84.22,57.24-138.18,57.24c-107.93,0-195.42-87.49-195.42-195.42
	S852.07,344.58,960,344.58c40.54,0,78.19,12.35,109.41,33.49h0.01l183.28-183.28C1173.79,127.77,1071.66,87.27,960,87.27
	c-250.04,0-452.73,202.69-452.73,452.73S709.96,992.73,960,992.73c250.04,0,452.73-202.69,452.73-452.73h-257.31H960z"/>
<path class="st2" d="M1408.07,475.45c-12.2-85.45-48.24-163.19-101.2-226.29l-226.29,226.29H1408.07z"/>
</svg>
